<svg class="main-svg" xmlns="http://www.w3.org/2000/svg" xmlns:xlink="http://www.w3.org/1999/xlink" width="500" height="300" style="" viewBox="0 0 500 300"><rect x="0" y="0" width="500" height="300" style="fill: rgb(255, 255, 255); fill-opacity: 1;"/><defs id="defs-751af0"><g class="clips"><clipPath id="clip751af0xyplot" class="plotclip"><rect width="424" height="234"/></clipPath><clipPath class="axesclip" id="clip751af0x"><rect x="76" y="0" width="424" height="300"/></clipPath><clipPath class="axesclip" id="clip751af0y"><rect x="0" y="5" width="500" height="234"/></clipPath><clipPath class="axesclip" id="clip751af0xy"><rect x="76" y="5" width="424" height="234"/></clipPath></g><g class="gradients"/><g class="patterns"/></defs><g class="bglayer"/><g class="layer-below"><g class="imagelayer"/><g class="shapelayer"/></g><g class="cartesianlayer"><g class="subplot xy"><g class="layer-subplot"><g class="shapelayer"/><g class="imagelayer"/></g><g class="minor-gridlayer"><g class="x"/><g class="y"/></g><g class="gridlayer"><g class="x"><path class="xgrid crisp" transform="translate(148.24,0)" d="M0,5v234" style="stroke: rgb(0, 0, 0); stroke-opacity: 0.1; stroke-width: 1px;"/><path class="xgrid crisp" transform="translate(242.8,0)" d="M0,5v234" style="stroke: rgb(0, 0, 0); stroke-opacity: 0.1; stroke-width: 1px;"/><path class="xgrid crisp" transform="translate(337.36,0)" d="M0,5v234" style="stroke: rgb(0, 0, 0); stroke-opacity: 0.1; stroke-width: 1px;"/><path class="xgrid crisp" transform="translate(431.92,0)" d="M0,5v234" style="stroke: rgb(0, 0, 0); stroke-opacity: 0.1; stroke-width: 1px;"/></g><g class="y"><path class="ygrid crisp" transform="translate(0,181.09)" d="M76,0h424" style="stroke: rgb(0, 0, 0); stroke-opacity: 0.1; stroke-width: 1px;"/><path class="ygrid crisp" transform="translate(0,140.17)" d="M76,0h424" style="stroke: rgb(0, 0, 0); stroke-opacity: 0.1; stroke-width: 1px;"/><path class="ygrid crisp" transform="translate(0,108.43)" d="M76,0h424" style="stroke: rgb(0, 0, 0); stroke-opacity: 0.1; stroke-width: 1px;"/><path class="ygrid crisp" transform="translate(0,82.5)" d="M76,0h424" style="stroke: rgb(0, 0, 0); stroke-opacity: 0.1; stroke-width: 1px;"/><path class="ygrid crisp" transform="translate(0,60.57)" d="M76,0h424" style="stroke: rgb(0, 0, 0); stroke-opacity: 0.1; stroke-width: 1px;"/><path class="ygrid crisp" transform="translate(0,41.58)" d="M76,0h424" style="stroke: rgb(0, 0, 0); stroke-opacity: 0.1; stroke-width: 1px;"/><path class="ygrid crisp" transform="translate(0,24.83)" d="M76,0h424" style="stroke: rgb(0, 0, 0); stroke-opacity: 0.1; stroke-width: 1px;"/><path class="ygrid crisp" transform="translate(0,9.84)" d="M76,0h424" style="stroke: rgb(0, 0, 0); stroke-opacity: 0.1; stroke-width: 1px;"/></g></g><g class="zerolinelayer"/><g class="layer-between"><g class="shapelayer"/><g class="imagelayer"/></g><path class="xlines-below"/><path class="ylines-below"/><g class="overlines-below"/><g class="xaxislayer-below"/><g class="yaxislayer-below"/><g class="overaxes-below"/><g class="overplot"><g class="xy" transform="translate(76,5)" clip-path="url(#clip751af0xyplot)"><g class="scatterlayer mlayer"><g class="trace scatter tracee64d89" style="stroke-miterlimit: 2; opacity: 1;"><g class="fills"/><g class="errorbars"/><g class="lines"><path class="js-line" d="M312.42,158.47Q424.11,168.97 424,170.58C423.84,172.85 262.47,163.24 200.84,162.91C157.27,162.68 116,178.56 89.26,165.55C67.4,154.92 56.65,123.44 44.63,105.81C35.57,92.52 29.3,83.19 22.32,69.83Q14.27,54.44 0,18.22" style="vector-effect: none; fill: none; stroke: rgb(95, 70, 144); stroke-opacity: 1; stroke-dasharray: 9px, 9px; stroke-width: 3px; opacity: 1;"/></g><g class="points"/><g class="text"/></g><g class="trace scatter traceca848e" style="stroke-miterlimit: 2;"><g class="fills"><g><path class="js-fill" d="M312.42,150.9Q424.26,166.21 424,168.76C423.64,172.35 262.47,159.64 200.84,159.37C157.27,159.18 116.01,175.9 89.26,163.09C67.44,152.64 56.57,121.54 44.63,103.7C35.47,90.02 29.28,80.09 22.32,66.12Q14.24,49.92 0,11.7L0,23.38Q14.27,58.36 22.32,73.13C29.3,85.92 35.69,94.52 44.63,107.41C56.75,124.89 67.33,156.78 89.26,167.93C115.98,181.51 157.27,167.84 200.84,168.5C262.47,169.43 423.85,176.42 424,174.08Q424.1,172.42 312.42,162.77Z" style="fill: rgb(95, 70, 144); fill-opacity: 0.3; stroke-width: 0;"/></g></g><g class="errorbars"/><g class="lines"><path class="js-line" d="M312.42,162.77Q424.1,172.42 424,174.08C423.85,176.42 262.47,169.43 200.84,168.5C157.27,167.84 115.98,181.51 89.26,167.93C67.33,156.78 56.75,124.89 44.63,107.41C35.69,94.52 29.3,85.92 22.32,73.13Q14.27,58.36 0,23.38" style="vector-effect: none; fill: none; stroke: rgb(239, 85, 59); stroke-opacity: 1; stroke-width: 0px; opacity: 1;"/></g><g class="points"/><g class="text"/></g><g class="trace scatter trace46e806" style="stroke-miterlimit: 2;"><g class="fills"/><g class="errorbars"/><g class="lines"><path class="js-line" d="M312.42,150.9Q424.26,166.21 424,168.76C423.64,172.35 262.47,159.64 200.84,159.37C157.27,159.18 116.01,175.9 89.26,163.09C67.44,152.64 56.57,121.54 44.63,103.7C35.47,90.02 29.28,80.09 22.32,66.12Q14.24,49.92 0,11.7" style="vector-effect: none; fill: none; stroke: rgb(0, 204, 150); stroke-opacity: 1; stroke-width: 0px; opacity: 1;"/></g><g class="points"/><g class="text"/></g><g class="trace scatter trace51007c" style="stroke-miterlimit: 2; opacity: 1;"><g class="fills"/><g class="errorbars"/><g class="lines"><path class="js-line" d="M312.42,171.87Q424.04,178.44 424,179.28C423.94,180.46 262.47,174.12 200.84,173.05C157.27,172.3 116.21,184.94 89.26,172.3C68.03,162.34 56.59,135.35 44.63,119.36C35.49,107.13 29.33,98.11 22.32,85.59Q14.32,71.3 0,37.78" style="vector-effect: none; fill: none; stroke: rgb(102, 102, 102); stroke-opacity: 1; stroke-dasharray: 9px, 9px; stroke-width: 3px; opacity: 1;"/></g><g class="points"/><g class="text"/></g><g class="trace scatter traceca0fdf" style="stroke-miterlimit: 2;"><g class="fills"><g><path class="js-fill" d="M312.42,162.2Q424.18,175.05 424,177.19C423.74,180.2 262.47,171.11 200.84,169.23C157.27,167.9 116.21,179.37 89.26,166.41C68.02,156.2 56.83,128.49 44.63,113.38C35.78,102.42 29.15,95.93 22.32,84.55Q13.97,70.64 0,34.87L0,43.45Q14.75,73.99 22.32,88.66C29.63,102.83 34.7,116.67 44.63,130.07C56.15,145.62 68.73,166.59 89.26,175.09C116.5,186.37 157.27,174.03 200.84,174.59C262.47,175.38 423.99,181.61 424,181.3Q424.01,181.08 312.42,176.83Z" style="fill: rgb(102, 102, 102); fill-opacity: 0.3; stroke-width: 0;"/></g></g><g class="errorbars"/><g class="lines"><path class="js-line" d="M312.42,176.83Q424.01,181.08 424,181.3C423.99,181.61 262.47,175.38 200.84,174.59C157.27,174.03 116.5,186.37 89.26,175.09C68.73,166.59 56.15,145.62 44.63,130.07C34.7,116.67 29.63,102.83 22.32,88.66Q14.75,73.99 0,43.45" style="vector-effect: none; fill: none; stroke: rgb(255, 161, 90); stroke-opacity: 1; stroke-width: 0px; opacity: 1;"/></g><g class="points"/><g class="text"/></g><g class="trace scatter traced6c614" style="stroke-miterlimit: 2;"><g class="fills"/><g class="errorbars"/><g class="lines"><path class="js-line" d="M312.42,162.2Q424.18,175.05 424,177.19C423.74,180.2 262.47,171.11 200.84,169.23C157.27,167.9 116.21,179.37 89.26,166.41C68.02,156.2 56.83,128.49 44.63,113.38C35.78,102.42 29.15,95.93 22.32,84.55Q13.97,70.64 0,34.87" style="vector-effect: none; fill: none; stroke: rgb(25, 211, 243); stroke-opacity: 1; stroke-width: 0px; opacity: 1;"/></g><g class="points"/><g class="text"/></g><g class="trace scatter tracefce969" style="stroke-miterlimit: 2; opacity: 1;"><g class="fills"/><g class="errorbars"/><g class="lines"><path class="js-line" d="M312.42,217.47Q424,220.14 424,220.15C424,220.17 262.47,215.11 200.84,214.91C157.27,214.77 117.99,219.11 89.26,216.79C70.94,215.31 56.75,212.6 44.63,208.75C35.7,205.91 29.29,203.43 22.32,198.33Q14.26,192.43 0,174.07" style="vector-effect: none; fill: none; stroke: rgb(95, 70, 144); stroke-opacity: 1; stroke-width: 3px; opacity: 1;"/></g><g class="points"/><g class="text"/></g><g class="trace scatter trace0e63c9" style="stroke-miterlimit: 2;"><g class="fills"><g><path class="js-fill" d="M312.42,216Q423.99,218.43 424,218.1C424.01,217.63 262.46,210.27 200.84,210.5C157.26,210.66 117.96,217.51 89.26,215.12C70.92,213.59 56.77,209.73 44.63,205.71C35.72,202.76 29.32,200.4 22.32,195.44Q14.31,189.76 0,172.37L0,175.91Q14.26,194.67 22.32,200.91C29.29,206.31 35.63,209.47 44.63,212.43C56.7,216.4 70.96,218.24 89.26,219.6C118.01,221.73 157.27,218.2 200.84,218.34C262.47,218.54 423.99,222.56 424,222.3Q424,222.11 312.42,219.36Z" style="fill: rgb(95, 70, 144); fill-opacity: 0.3; stroke-width: 0;"/></g></g><g class="errorbars"/><g class="lines"><path class="js-line" d="M312.42,219.36Q424,222.11 424,222.3C423.99,222.56 262.47,218.54 200.84,218.34C157.27,218.2 118.01,221.73 89.26,219.6C70.96,218.24 56.7,216.4 44.63,212.43C35.63,209.47 29.29,206.31 22.32,200.91Q14.26,194.67 0,175.91" style="vector-effect: none; fill: none; stroke: rgb(182, 232, 128); stroke-opacity: 1; stroke-width: 0px; opacity: 1;"/></g><g class="points"/><g class="text"/></g><g class="trace scatter traced4c2c0" style="stroke-miterlimit: 2;"><g class="fills"/><g class="errorbars"/><g class="lines"><path class="js-line" d="M312.42,216Q423.99,218.43 424,218.1C424.01,217.63 262.46,210.27 200.84,210.5C157.26,210.66 117.96,217.51 89.26,215.12C70.92,213.59 56.77,209.73 44.63,205.71C35.72,202.76 29.32,200.4 22.32,195.44Q14.31,189.76 0,172.37" style="vector-effect: none; fill: none; stroke: rgb(255, 151, 255); stroke-opacity: 1; stroke-width: 0px; opacity: 1;"/></g><g class="points"/><g class="text"/></g><g class="trace scatter tracec15204" style="stroke-miterlimit: 2; opacity: 1;"><g class="fills"/><g class="errorbars"/><g class="lines"><path class="js-line" d="M312.42,213.57Q424,215.45 424,215.45C424,215.45 262.47,211.89 200.84,211.66C157.27,211.5 117.92,216.02 89.26,212.72C70.87,210.61 56.15,208.89 44.63,201.87C34.71,195.82 28.81,187.63 22.32,176.15Q12.88,159.46 0,107.65" style="vector-effect: none; fill: none; stroke: rgb(102, 102, 102); stroke-opacity: 1; stroke-width: 3px; opacity: 1;"/></g><g class="points"/><g class="text"/></g><g class="trace scatter trace35a126" style="stroke-miterlimit: 2;"><g class="fills"><g><path class="js-fill" d="M312.42,210.82Q424.01,213.85 424,214.07C423.99,214.39 262.47,210.14 200.84,209.87C157.27,209.68 117.91,214.37 89.26,210.98C70.86,208.8 56.18,206.81 44.63,199.8C34.76,193.81 28.73,186.23 22.32,174.64Q12.47,156.83 0,98.5L0,113.32Q13.02,163.09 22.32,179.46C28.84,190.93 34.65,199.63 44.63,205.51C56.13,212.29 70.92,212.98 89.26,214.69C117.97,217.36 157.27,212.7 200.84,212.79C262.46,212.91 424,217.29 424,217.49Q424,217.63 312.42,215.88Z" style="fill: rgb(102, 102, 102); fill-opacity: 0.3; stroke-width: 0;"/></g></g><g class="errorbars"/><g class="lines"><path class="js-line" d="M312.42,215.88Q424,217.63 424,217.49C424,217.29 262.46,212.91 200.84,212.79C157.27,212.7 117.97,217.36 89.26,214.69C70.92,212.98 56.13,212.29 44.63,205.51C34.65,199.63 28.84,190.93 22.32,179.46Q13.02,163.09 0,113.32" style="vector-effect: none; fill: none; stroke: rgb(99, 110, 250); stroke-opacity: 1; stroke-width: 0px; opacity: 1;"/></g><g class="points"/><g class="text"/></g><g class="trace scatter trace9bb316" style="stroke-miterlimit: 2;"><g class="fills"/><g class="errorbars"/><g class="lines"><path class="js-line" d="M312.42,210.82Q424.01,213.85 424,214.07C423.99,214.39 262.47,210.14 200.84,209.87C157.27,209.68 117.91,214.37 89.26,210.98C70.86,208.8 56.18,206.81 44.63,199.8C34.76,193.81 28.73,186.23 22.32,174.64Q12.47,156.83 0,98.5" style="vector-effect: none; fill: none; stroke: rgb(239, 85, 59); stroke-opacity: 1; stroke-width: 0px; opacity: 1;"/></g><g class="points"/><g class="text"/></g><g class="trace scatter traceddd86a" style="stroke-miterlimit: 2; opacity: 1;"><g class="fills"/><g class="errorbars"/><g class="lines"/><g class="points"/><g class="text"/></g><g class="trace scatter traced0de9b" style="stroke-miterlimit: 2; opacity: 1;"><g class="fills"/><g class="errorbars"/><g class="lines"/><g class="points"/><g class="text"/></g><g class="trace scatter tracef1b797" style="stroke-miterlimit: 2; opacity: 1;"><g class="fills"/><g class="errorbars"/><g class="lines"/><g class="points"/><g class="text"/></g><g class="trace scatter tracea747ea" style="stroke-miterlimit: 2; opacity: 1;"><g class="fills"/><g class="errorbars"/><g class="lines"/><g class="points"/><g class="text"/></g><g class="trace scatter traceb857c7" style="stroke-miterlimit: 2; opacity: 1;"><g class="fills"/><g class="errorbars"/><g class="lines"/><g class="points"/><g class="text"/></g><g class="trace scatter tracea6ddfc" style="stroke-miterlimit: 2; opacity: 1;"><g class="fills"/><g class="errorbars"/><g class="lines"/><g class="points"/><g class="text"/></g></g></g></g><path class="xlines-above crisp" d="M75,239.5H500" style="fill: none; stroke-width: 1px; stroke: rgb(0, 0, 0); stroke-opacity: 0.3;"/><path class="ylines-above crisp" d="M75.5,5V239" style="fill: none; stroke-width: 1px; stroke: rgb(0, 0, 0); stroke-opacity: 0.3;"/><g class="overlines-above"/><g class="xaxislayer-above"><g class="xtick"><text text-anchor="middle" x="0" y="264" transform="translate(148.24,0)" style="font-family: 'Open Sans', verdana, arial, sans-serif; font-size: 20px; fill: rgb(42, 63, 95); fill-opacity: 1; white-space: pre; opacity: 1;">5k</text></g><g class="xtick"><text text-anchor="middle" x="0" y="264" style="font-family: 'Open Sans', verdana, arial, sans-serif; font-size: 20px; fill: rgb(42, 63, 95); fill-opacity: 1; white-space: pre; opacity: 1;" transform="translate(242.8,0)">10k</text></g><g class="xtick"><text text-anchor="middle" x="0" y="264" style="font-family: 'Open Sans', verdana, arial, sans-serif; font-size: 20px; fill: rgb(42, 63, 95); fill-opacity: 1; white-space: pre; opacity: 1;" transform="translate(337.36,0)">15k</text></g><g class="xtick"><text text-anchor="middle" x="0" y="264" style="font-family: 'Open Sans', verdana, arial, sans-serif; font-size: 20px; fill: rgb(42, 63, 95); fill-opacity: 1; white-space: pre; opacity: 1;" transform="translate(431.92,0)">20k</text></g></g><g class="yaxislayer-above"><g class="ytick"><text text-anchor="end" x="71" y="7" transform="translate(0,238.77)" style="font-family: 'Open Sans', verdana, arial, sans-serif; font-size: 20px; fill: rgb(42, 63, 95); fill-opacity: 1; white-space: pre; opacity: 1;">0.1</text></g><g class="ytick"><text text-anchor="end" x="71" y="7" style="font-family: 'Open Sans', verdana, arial, sans-serif; font-size: 20px; fill: rgb(42, 63, 95); fill-opacity: 1; white-space: pre; opacity: 1;" transform="translate(0,181.09)">0.15</text></g><g class="ytick"><text text-anchor="end" x="71" y="7" style="font-family: 'Open Sans', verdana, arial, sans-serif; font-size: 20px; fill: rgb(42, 63, 95); fill-opacity: 1; white-space: pre; opacity: 1;" transform="translate(0,140.17)">0.2</text></g><g class="ytick"><text text-anchor="end" x="71" y="7" style="font-family: 'Open Sans', verdana, arial, sans-serif; font-size: 20px; fill: rgb(42, 63, 95); fill-opacity: 1; white-space: pre; opacity: 1;" transform="translate(0,108.43)">0.25</text></g><g class="ytick"><text text-anchor="end" x="71" y="7" style="font-family: 'Open Sans', verdana, arial, sans-serif; font-size: 20px; fill: rgb(42, 63, 95); fill-opacity: 1; white-space: pre; opacity: 1;" transform="translate(0,82.5)">0.3</text></g><g class="ytick"><text text-anchor="end" x="71" y="7" style="font-family: 'Open Sans', verdana, arial, sans-serif; font-size: 20px; fill: rgb(42, 63, 95); fill-opacity: 1; white-space: pre; opacity: 1;" transform="translate(0,60.57)">0.35</text></g><g class="ytick"><text text-anchor="end" x="71" y="7" style="font-family: 'Open Sans', verdana, arial, sans-serif; font-size: 20px; fill: rgb(42, 63, 95); fill-opacity: 1; white-space: pre; opacity: 1;" transform="translate(0,41.58)">0.4</text></g><g class="ytick"><text text-anchor="end" x="71" y="7" style="font-family: 'Open Sans', verdana, arial, sans-serif; font-size: 20px; fill: rgb(42, 63, 95); fill-opacity: 1; white-space: pre; opacity: 1;" transform="translate(0,24.83)">0.45</text></g><g class="ytick"><text text-anchor="end" x="71" y="7" style="font-family: 'Open Sans', verdana, arial, sans-serif; font-size: 20px; fill: rgb(42, 63, 95); fill-opacity: 1; white-space: pre; opacity: 0;" transform="translate(0,9.84)">0.5</text></g></g><g class="overaxes-above"/></g></g><g class="polarlayer"/><g class="smithlayer"/><g class="ternarylayer"/><g class="geolayer"/><g class="funnelarealayer"/><g class="pielayer"/><g class="iciclelayer"/><g class="treemaplayer"/><g class="sunburstlayer"/><g class="glimages"/><defs id="topdefs-751af0"><g class="clips"/></defs><g class="layer-above"><g class="imagelayer"/><g class="shapelayer"/></g><g class="infolayer"><g class="g-gtitle"/><g class="g-xtitle" transform="translate(0,-4.300000000000011)"><text class="xtitle" x="288" y="299.3" text-anchor="middle" style="opacity: 1; font-family: 'Open Sans', verdana, arial, sans-serif; font-size: 24px; fill: rgb(42, 63, 95); fill-opacity: 1; white-space: pre;">training samples</text></g><g class="g-ytitle" transform="translate(12.837890625,0)"><text class="ytitle" transform="rotate(-90,9.162499999999994,122)" x="9.162499999999994" y="122" text-anchor="middle" style="opacity: 1; font-family: 'Open Sans', verdana, arial, sans-serif; font-size: 24px; fill: rgb(42, 63, 95); fill-opacity: 1; white-space: pre;">state prediction MSE</text></g></g></svg>