<svg class="main-svg" xmlns="http://www.w3.org/2000/svg" xmlns:xlink="http://www.w3.org/1999/xlink" width="500" height="300" style="" viewBox="0 0 500 300"><rect x="0" y="0" width="500" height="300" style="fill: rgb(255, 255, 255); fill-opacity: 1;"/><defs id="defs-eb7006"><g class="clips"><clipPath id="clipeb7006xyplot" class="plotclip"><rect width="407" height="239"/></clipPath><clipPath class="axesclip" id="clipeb7006x"><rect x="76" y="0" width="407" height="300"/></clipPath><clipPath class="axesclip" id="clipeb7006y"><rect x="0" y="0" width="500" height="239"/></clipPath><clipPath class="axesclip" id="clipeb7006xy"><rect x="76" y="0" width="407" height="239"/></clipPath></g><g class="gradients"/><g class="patterns"/></defs><g class="bglayer"/><g class="layer-below"><g class="imagelayer"/><g class="shapelayer"/></g><g class="cartesianlayer"><g class="subplot xy"><g class="layer-subplot"><g class="shapelayer"/><g class="imagelayer"/></g><g class="minor-gridlayer"><g class="x"/><g class="y"/></g><g class="gridlayer"><g class="x"><path class="xgrid crisp" transform="translate(121.22,0)" d="M0,0v239" style="stroke: rgb(0, 0, 0); stroke-opacity: 0.1; stroke-width: 1px;"/><path class="xgrid crisp" transform="translate(211.67,0)" d="M0,0v239" style="stroke: rgb(0, 0, 0); stroke-opacity: 0.1; stroke-width: 1px;"/><path class="xgrid crisp" transform="translate(302.11,0)" d="M0,0v239" style="stroke: rgb(0, 0, 0); stroke-opacity: 0.1; stroke-width: 1px;"/><path class="xgrid crisp" transform="translate(392.56,0)" d="M0,0v239" style="stroke: rgb(0, 0, 0); stroke-opacity: 0.1; stroke-width: 1px;"/></g><g class="y"><path class="ygrid crisp" transform="translate(0,229.28)" d="M76,0h407" style="stroke: rgb(0, 0, 0); stroke-opacity: 0.1; stroke-width: 1px;"/><path class="ygrid crisp" transform="translate(0,178.95)" d="M76,0h407" style="stroke: rgb(0, 0, 0); stroke-opacity: 0.1; stroke-width: 1px;"/><path class="ygrid crisp" transform="translate(0,128.62)" d="M76,0h407" style="stroke: rgb(0, 0, 0); stroke-opacity: 0.1; stroke-width: 1px;"/><path class="ygrid crisp" transform="translate(0,78.29)" d="M76,0h407" style="stroke: rgb(0, 0, 0); stroke-opacity: 0.1; stroke-width: 1px;"/><path class="ygrid crisp" transform="translate(0,27.95)" d="M76,0h407" style="stroke: rgb(0, 0, 0); stroke-opacity: 0.1; stroke-width: 1px;"/></g></g><g class="zerolinelayer"/><g class="layer-between"><g class="shapelayer"/><g class="imagelayer"/></g><path class="xlines-below"/><path class="ylines-below"/><g class="overlines-below"/><g class="xaxislayer-below"/><g class="yaxislayer-below"/><g class="overaxes-below"/><g class="overplot"><g class="xy" transform="translate(76,0)" clip-path="url(#clipeb7006xyplot)"><g class="scatterlayer mlayer"><g class="trace scatter trace7ad3c8" style="stroke-miterlimit: 2; opacity: 1;"><g class="fills"/><g class="errorbars"/><g class="lines"><path class="js-line" d="M407,60.45Q311.23,68.8 271.33,80.75C237.32,90.94 211.09,108.93 180.89,122.62C150.8,136.26 121.27,157.4 90.44,162.74Q60.92,167.85 0,156" style="vector-effect: none; fill: none; stroke: rgb(95, 70, 144); stroke-opacity: 1; stroke-dasharray: 9px, 9px; stroke-width: 3px; opacity: 1;"/></g><g class="points"/><g class="text"/></g><g class="trace scatter tracec8ffa4" style="stroke-miterlimit: 2;"><g class="fills"><g><path class="js-fill" d="M407,56.91Q311.24,66.33 271.33,78.51C237.33,88.88 211.25,107.56 180.89,120.47C150.95,133.2 121.11,150.98 90.44,155.51Q60.78,159.89 0,148.62L0,162.69Q60.97,172.57 90.44,166.85C121.33,160.86 150.75,139.27 180.89,125.45C211.04,111.63 237.32,93.89 271.33,83.92Q311.23,72.22 407,64.84Z" style="fill: rgb(95, 70, 144); fill-opacity: 0.3; stroke-width: 0;"/></g></g><g class="errorbars"/><g class="lines"><path class="js-line" d="M407,64.84Q311.23,72.22 271.33,83.92C237.32,93.89 211.04,111.63 180.89,125.45C150.75,139.27 121.33,160.86 90.44,166.85Q60.97,172.57 0,162.69" style="vector-effect: none; fill: none; stroke: rgb(239, 85, 59); stroke-opacity: 1; stroke-width: 0px; opacity: 1;"/></g><g class="points"/><g class="text"/></g><g class="trace scatter traceef4ac1" style="stroke-miterlimit: 2;"><g class="fills"/><g class="errorbars"/><g class="lines"><path class="js-line" d="M407,56.91Q311.24,66.33 271.33,78.51C237.33,88.88 211.25,107.56 180.89,120.47C150.95,133.2 121.11,150.98 90.44,155.51Q60.78,159.89 0,148.62" style="vector-effect: none; fill: none; stroke: rgb(0, 204, 150); stroke-opacity: 1; stroke-width: 0px; opacity: 1;"/></g><g class="points"/><g class="text"/></g><g class="trace scatter trace4e292a" style="stroke-miterlimit: 2; opacity: 1;"><g class="fills"/><g class="errorbars"/><g class="lines"><path class="js-line" d="M407,16.83Q309.66,24.49 271.33,44.37C234.99,63.22 213.61,112.42 180.89,129.76C152.65,144.73 119.11,136.17 90.44,149.81Q58.44,165.04 0,221.51" style="vector-effect: none; fill: none; stroke: rgb(102, 102, 102); stroke-opacity: 1; stroke-dasharray: 9px, 9px; stroke-width: 3px; opacity: 1;"/></g><g class="points"/><g class="text"/></g><g class="trace scatter trace8336b4" style="stroke-miterlimit: 2;"><g class="fills"><g><path class="js-fill" d="M407,11.95Q309.72,22.29 271.33,42.66C235.09,61.88 213.56,110.06 180.89,127.41C152.63,142.42 119.13,134.27 90.44,147.97Q58.48,163.23 0,219.22L0,223.27Q58.41,166.42 90.44,151.36C119.09,137.89 152.67,147.11 180.89,132.34C213.63,115.21 234.92,65.11 271.33,46.93Q309.63,27.81 407,23.71Z" style="fill: rgb(102, 102, 102); fill-opacity: 0.3; stroke-width: 0;"/></g></g><g class="errorbars"/><g class="lines"><path class="js-line" d="M407,23.71Q309.63,27.81 271.33,46.93C234.92,65.11 213.63,115.21 180.89,132.34C152.67,147.11 119.09,137.89 90.44,151.36Q58.41,166.42 0,223.27" style="vector-effect: none; fill: none; stroke: rgb(255, 161, 90); stroke-opacity: 1; stroke-width: 0px; opacity: 1;"/></g><g class="points"/><g class="text"/></g><g class="trace scatter traceb36054" style="stroke-miterlimit: 2;"><g class="fills"/><g class="errorbars"/><g class="lines"><path class="js-line" d="M407,11.95Q309.72,22.29 271.33,42.66C235.09,61.88 213.56,110.06 180.89,127.41C152.63,142.42 119.13,134.27 90.44,147.97Q58.48,163.23 0,219.22" style="vector-effect: none; fill: none; stroke: rgb(25, 211, 243); stroke-opacity: 1; stroke-width: 0px; opacity: 1;"/></g><g class="points"/><g class="text"/></g><g class="trace scatter traceba9108" style="stroke-miterlimit: 2; opacity: 1;"><g class="fills"/><g class="errorbars"/><g class="lines"><path class="js-line" d="M407,128.61Q311.79,138.63 271.33,146.24C237.94,152.52 210.95,160.47 180.89,168.61C150.65,176.8 120.6,195.18 90.44,195.23Q60.3,195.28 0,168.91" style="vector-effect: none; fill: none; stroke: rgb(95, 70, 144); stroke-opacity: 1; stroke-width: 3px; opacity: 1;"/></g><g class="points"/><g class="text"/></g><g class="trace scatter trace914eeb" style="stroke-miterlimit: 2;"><g class="fills"><g><path class="js-fill" d="M407,127.36Q311.81,138.02 271.33,145.58C237.96,151.81 210.93,159.21 180.89,167.31C150.63,175.47 120.61,194.26 90.44,194.4Q60.31,194.54 0,168.24L0,169.66Q60.29,196.37 90.44,196.36C120.59,196.35 150.65,177.81 180.89,169.62C210.94,161.48 237.93,153.44 271.33,147.32Q311.78,139.9 407,130.83Z" style="fill: rgb(95, 70, 144); fill-opacity: 0.3; stroke-width: 0;"/></g></g><g class="errorbars"/><g class="lines"><path class="js-line" d="M407,130.83Q311.78,139.9 271.33,147.32C237.93,153.44 210.94,161.48 180.89,169.62C150.65,177.81 120.59,196.35 90.44,196.36Q60.29,196.37 0,169.66" style="vector-effect: none; fill: none; stroke: rgb(182, 232, 128); stroke-opacity: 1; stroke-width: 0px; opacity: 1;"/></g><g class="points"/><g class="text"/></g><g class="trace scatter trace45e92d" style="stroke-miterlimit: 2;"><g class="fills"/><g class="errorbars"/><g class="lines"><path class="js-line" d="M407,127.36Q311.81,138.02 271.33,145.58C237.96,151.81 210.93,159.21 180.89,167.31C150.63,175.47 120.61,194.26 90.44,194.4Q60.31,194.54 0,168.24" style="vector-effect: none; fill: none; stroke: rgb(255, 151, 255); stroke-opacity: 1; stroke-width: 0px; opacity: 1;"/></g><g class="points"/><g class="text"/></g><g class="trace scatter tracea840aa" style="stroke-miterlimit: 2; opacity: 1;"><g class="fills"/><g class="errorbars"/><g class="lines"><path class="js-line" d="M407,95.99Q310.92,100.63 271.33,113.62C236.93,124.91 211.84,151.33 180.89,163.61C151.47,175.28 120.18,176.51 90.44,186.74Q59.86,197.25 0,226.26" style="vector-effect: none; fill: none; stroke: rgb(102, 102, 102); stroke-opacity: 1; stroke-width: 3px; opacity: 1;"/></g><g class="points"/><g class="text"/></g><g class="trace scatter trace096c75" style="stroke-miterlimit: 2;"><g class="fills"><g><path class="js-fill" d="M407,95.01Q310.9,99.22 271.33,112.18C236.91,123.45 211.89,150.38 180.89,162.41C151.5,173.82 120.12,173.85 90.44,183.94Q59.79,194.36 0,224.5L0,227.05Q59.89,198.84 90.44,188.47C120.21,178.37 151.43,176.79 180.89,165.26C211.8,153.16 237,127.76 271.33,116.45Q310.97,103.39 407,97.1Z" style="fill: rgb(102, 102, 102); fill-opacity: 0.3; stroke-width: 0;"/></g></g><g class="errorbars"/><g class="lines"><path class="js-line" d="M407,97.1Q310.97,103.39 271.33,116.45C237,127.76 211.8,153.16 180.89,165.26C151.43,176.79 120.21,178.37 90.44,188.47Q59.89,198.84 0,227.05" style="vector-effect: none; fill: none; stroke: rgb(99, 110, 250); stroke-opacity: 1; stroke-width: 0px; opacity: 1;"/></g><g class="points"/><g class="text"/></g><g class="trace scatter trace458c38" style="stroke-miterlimit: 2;"><g class="fills"/><g class="errorbars"/><g class="lines"><path class="js-line" d="M407,95.01Q310.9,99.22 271.33,112.18C236.91,123.45 211.89,150.38 180.89,162.41C151.5,173.82 120.12,173.85 90.44,183.94Q59.79,194.36 0,224.5" style="vector-effect: none; fill: none; stroke: rgb(239, 85, 59); stroke-opacity: 1; stroke-width: 0px; opacity: 1;"/></g><g class="points"/><g class="text"/></g><g class="trace scatter trace162151" style="stroke-miterlimit: 2; opacity: 1;"><g class="fills"/><g class="errorbars"/><g class="lines"/><g class="points"/><g class="text"/></g><g class="trace scatter trace86f330" style="stroke-miterlimit: 2; opacity: 1;"><g class="fills"/><g class="errorbars"/><g class="lines"/><g class="points"/><g class="text"/></g><g class="trace scatter trace345435" style="stroke-miterlimit: 2; opacity: 1;"><g class="fills"/><g class="errorbars"/><g class="lines"/><g class="points"/><g class="text"/></g><g class="trace scatter tracea7c25f" style="stroke-miterlimit: 2; opacity: 1;"><g class="fills"/><g class="errorbars"/><g class="lines"/><g class="points"/><g class="text"/></g><g class="trace scatter traceb6be07" style="stroke-miterlimit: 2; opacity: 1;"><g class="fills"/><g class="errorbars"/><g class="lines"/><g class="points"/><g class="text"/></g><g class="trace scatter tracee1a83a" style="stroke-miterlimit: 2; opacity: 1;"><g class="fills"/><g class="errorbars"/><g class="lines"/><g class="points"/><g class="text"/></g></g></g></g><path class="xlines-above crisp" d="M75,239.5H483" style="fill: none; stroke-width: 1px; stroke: rgb(0, 0, 0); stroke-opacity: 0.3;"/><path class="ylines-above crisp" d="M75.5,0V239" style="fill: none; stroke-width: 1px; stroke: rgb(0, 0, 0); stroke-opacity: 0.3;"/><g class="overlines-above"/><g class="xaxislayer-above"><g class="xtick"><text text-anchor="middle" x="0" y="264" transform="translate(121.22,0)" style="font-family: 'Open Sans', verdana, arial, sans-serif; font-size: 20px; fill: rgb(42, 63, 95); fill-opacity: 1; white-space: pre; opacity: 1;">20</text></g><g class="xtick"><text text-anchor="middle" x="0" y="264" style="font-family: 'Open Sans', verdana, arial, sans-serif; font-size: 20px; fill: rgb(42, 63, 95); fill-opacity: 1; white-space: pre; opacity: 1;" transform="translate(211.67,0)">40</text></g><g class="xtick"><text text-anchor="middle" x="0" y="264" style="font-family: 'Open Sans', verdana, arial, sans-serif; font-size: 20px; fill: rgb(42, 63, 95); fill-opacity: 1; white-space: pre; opacity: 1;" transform="translate(302.11,0)">60</text></g><g class="xtick"><text text-anchor="middle" x="0" y="264" style="font-family: 'Open Sans', verdana, arial, sans-serif; font-size: 20px; fill: rgb(42, 63, 95); fill-opacity: 1; white-space: pre; opacity: 1;" transform="translate(392.56,0)">80</text></g><g class="xtick"><text text-anchor="middle" x="0" y="264" style="font-family: 'Open Sans', verdana, arial, sans-serif; font-size: 20px; fill: rgb(42, 63, 95); fill-opacity: 1; white-space: pre; opacity: 1;" transform="translate(483,0)">100</text></g></g><g class="yaxislayer-above"><g class="ytick"><text text-anchor="end" x="71" y="7" transform="translate(0,229.28)" style="font-family: 'Open Sans', verdana, arial, sans-serif; font-size: 20px; fill: rgb(42, 63, 95); fill-opacity: 1; white-space: pre; opacity: 1;">0.05</text></g><g class="ytick"><text text-anchor="end" x="71" y="7" style="font-family: 'Open Sans', verdana, arial, sans-serif; font-size: 20px; fill: rgb(42, 63, 95); fill-opacity: 1; white-space: pre; opacity: 1;" transform="translate(0,178.95)">0.1</text></g><g class="ytick"><text text-anchor="end" x="71" y="7" style="font-family: 'Open Sans', verdana, arial, sans-serif; font-size: 20px; fill: rgb(42, 63, 95); fill-opacity: 1; white-space: pre; opacity: 1;" transform="translate(0,128.62)">0.15</text></g><g class="ytick"><text text-anchor="end" x="71" y="7" style="font-family: 'Open Sans', verdana, arial, sans-serif; font-size: 20px; fill: rgb(42, 63, 95); fill-opacity: 1; white-space: pre; opacity: 1;" transform="translate(0,78.29)">0.2</text></g><g class="ytick"><text text-anchor="end" x="71" y="7" style="font-family: 'Open Sans', verdana, arial, sans-serif; font-size: 20px; fill: rgb(42, 63, 95); fill-opacity: 1; white-space: pre; opacity: 1;" transform="translate(0,27.95)">0.25</text></g></g><g class="overaxes-above"/></g></g><g class="polarlayer"/><g class="smithlayer"/><g class="ternarylayer"/><g class="geolayer"/><g class="funnelarealayer"/><g class="pielayer"/><g class="iciclelayer"/><g class="treemaplayer"/><g class="sunburstlayer"/><g class="glimages"/><defs id="topdefs-eb7006"><g class="clips"/></defs><g class="layer-above"><g class="imagelayer"/><g class="shapelayer"/></g><g class="infolayer"><g class="g-gtitle"/><g class="g-xtitle" transform="translate(0,-4.300000000000011)"><text class="xtitle" x="279.5" y="299.3" text-anchor="middle" style="opacity: 1; font-family: 'Open Sans', verdana, arial, sans-serif; font-size: 24px; fill: rgb(42, 63, 95); fill-opacity: 1; white-space: pre;">state dimension</text></g><g class="g-ytitle" transform="translate(12.837890625,0)"><text class="ytitle" transform="rotate(-90,9.162499999999994,119.5)" x="9.162499999999994" y="119.5" text-anchor="middle" style="opacity: 1; font-family: 'Open Sans', verdana, arial, sans-serif; font-size: 24px; fill: rgb(42, 63, 95); fill-opacity: 1; white-space: pre;">state prediction MSE</text></g></g></svg>