<svg class="main-svg" xmlns="http://www.w3.org/2000/svg" xmlns:xlink="http://www.w3.org/1999/xlink" width="500" height="300" style="" viewBox="0 0 500 300"><rect x="0" y="0" width="500" height="300" style="fill: rgb(255, 255, 255); fill-opacity: 1;"/><defs id="defs-db9238"><g class="clips"><clipPath id="clipdb9238xyplot" class="plotclip"><rect width="435" height="239"/></clipPath><clipPath class="axesclip" id="clipdb9238x"><rect x="65" y="0" width="435" height="300"/></clipPath><clipPath class="axesclip" id="clipdb9238y"><rect x="0" y="0" width="500" height="239"/></clipPath><clipPath class="axesclip" id="clipdb9238xy"><rect x="65" y="0" width="435" height="239"/></clipPath></g><g class="gradients"/><g class="patterns"/></defs><g class="bglayer"/><g class="layer-below"><g class="imagelayer"/><g class="shapelayer"/></g><g class="cartesianlayer"><g class="subplot xy"><g class="layer-subplot"><g class="shapelayer"/><g class="imagelayer"/></g><g class="minor-gridlayer"><g class="x"/><g class="y"/></g><g class="gridlayer"><g class="x"><path class="xgrid crisp" transform="translate(161.67000000000002,0)" d="M0,0v239" style="stroke: rgb(0, 0, 0); stroke-opacity: 0.1; stroke-width: 1px;"/><path class="xgrid crisp" transform="translate(258.33000000000004,0)" d="M0,0v239" style="stroke: rgb(0, 0, 0); stroke-opacity: 0.1; stroke-width: 1px;"/><path class="xgrid crisp" transform="translate(355,0)" d="M0,0v239" style="stroke: rgb(0, 0, 0); stroke-opacity: 0.1; stroke-width: 1px;"/><path class="xgrid crisp" transform="translate(451.67,0)" d="M0,0v239" style="stroke: rgb(0, 0, 0); stroke-opacity: 0.1; stroke-width: 1px;"/></g><g class="y"><path class="ygrid crisp" transform="translate(0,182.82)" d="M65,0h435" style="stroke: rgb(0, 0, 0); stroke-opacity: 0.1; stroke-width: 1px;"/><path class="ygrid crisp" transform="translate(0,134.41)" d="M65,0h435" style="stroke: rgb(0, 0, 0); stroke-opacity: 0.1; stroke-width: 1px;"/><path class="ygrid crisp" transform="translate(0,86)" d="M65,0h435" style="stroke: rgb(0, 0, 0); stroke-opacity: 0.1; stroke-width: 1px;"/><path class="ygrid crisp" transform="translate(0,37.6)" d="M65,0h435" style="stroke: rgb(0, 0, 0); stroke-opacity: 0.1; stroke-width: 1px;"/></g></g><g class="zerolinelayer"><path class="yzl zl crisp" transform="translate(0,231.23)" d="M65,0h435" style="stroke: rgb(255, 255, 255); stroke-opacity: 1; stroke-width: 2px;"/></g><g class="layer-between"><g class="shapelayer"/><g class="imagelayer"/></g><path class="xlines-below"/><path class="ylines-below"/><g class="overlines-below"/><g class="xaxislayer-below"/><g class="yaxislayer-below"/><g class="overaxes-below"/><g class="overplot"><g class="xy" transform="translate(65,0)" clip-path="url(#clipdb9238xyplot)"><g class="scatterlayer mlayer"><g class="trace scatter tracea951d6" style="stroke-miterlimit: 2; opacity: 1;"><g class="fills"/><g class="errorbars"/><g class="lines"><path class="js-line" d="M193.33,128.42Q435.02,14.73 435,14.69C434.98,14.65 96.61,173.43 96.67,173.56C96.72,173.68 386.49,37.82 386.67,38.2C386.77,38.42 330.96,65.36 290,84.58Q219.34,117.74 0,217.66" style="vector-effect: none; fill: none; stroke: rgb(95, 70, 144); stroke-opacity: 1; stroke-dasharray: 9px, 9px; stroke-width: 3px; opacity: 1;"/></g><g class="points"/><g class="text"/></g><g class="trace scatter trace04d21c" style="stroke-miterlimit: 2;"><g class="fills"><g><path class="js-fill" d="M193.33,127.03Q434.99,11.94 435,11.95C435.01,11.96 96.54,172.89 96.67,173.16C96.79,173.41 386.44,36.28 386.67,36.76C386.8,37.04 330.99,64.42 290,83.84Q219.36,117.31 0,217.51L0,217.92Q219.39,119.3 290,86.06C331.02,66.75 386.84,39.32 386.67,38.97C386.38,38.36 96.68,174.09 96.67,174.07C96.66,174.05 434.87,16.01 435,16.28Q435.11,16.51 193.33,130.52Z" style="fill: rgb(95, 70, 144); fill-opacity: 0.3; stroke-width: 0;"/></g></g><g class="errorbars"/><g class="lines"><path class="js-line" d="M193.33,130.52Q435.11,16.51 435,16.28C434.87,16.01 96.66,174.05 96.67,174.07C96.68,174.09 386.38,38.36 386.67,38.97C386.84,39.32 331.02,66.75 290,86.06Q219.39,119.3 0,217.92" style="vector-effect: none; fill: none; stroke: rgb(239, 85, 59); stroke-opacity: 1; stroke-width: 0px; opacity: 1;"/></g><g class="points"/><g class="text"/></g><g class="trace scatter trace336888" style="stroke-miterlimit: 2;"><g class="fills"/><g class="errorbars"/><g class="lines"><path class="js-line" d="M193.33,127.03Q434.99,11.94 435,11.95C435.01,11.96 96.54,172.89 96.67,173.16C96.79,173.41 386.44,36.28 386.67,36.76C386.8,37.04 330.99,64.42 290,83.84Q219.36,117.31 0,217.51" style="vector-effect: none; fill: none; stroke: rgb(0, 204, 150); stroke-opacity: 1; stroke-width: 0px; opacity: 1;"/></g><g class="points"/><g class="text"/></g><g class="trace scatter tracefe0978" style="stroke-miterlimit: 2; opacity: 1;"><g class="fills"/><g class="errorbars"/><g class="lines"><path class="js-line" d="M193.33,128.85Q434.83,15.49 435,15.84C435.2,16.26 96.36,176.72 96.67,177.38C96.96,177.99 387.26,44.58 386.67,43.24C386.33,42.47 330.62,65.65 290,83.6Q219,114.97 0,218.93" style="vector-effect: none; fill: none; stroke: rgb(102, 102, 102); stroke-opacity: 1; stroke-dasharray: 9px, 9px; stroke-width: 3px; opacity: 1;"/></g><g class="points"/><g class="text"/></g><g class="trace scatter trace239b89" style="stroke-miterlimit: 2;"><g class="fills"><g><path class="js-fill" d="M193.33,128.15Q434.92,13.36 435,13.52C435.09,13.71 96.42,174.99 96.67,175.52C96.9,176.01 387.06,41 386.67,40.15C386.45,39.66 330.7,64.01 290,82.47Q219.08,114.64 0,218.68L0,219.03Q218.99,116.15 290,85.17C330.62,67.44 386.33,44.59 386.67,45.38C387.27,46.76 96.89,178.59 96.67,178.11C96.43,177.59 435.27,19.93 435,19.35Q434.78,18.87 193.33,129.49Z" style="fill: rgb(102, 102, 102); fill-opacity: 0.3; stroke-width: 0;"/></g></g><g class="errorbars"/><g class="lines"><path class="js-line" d="M193.33,129.49Q434.78,18.87 435,19.35C435.27,19.93 96.43,177.59 96.67,178.11C96.89,178.59 387.27,46.76 386.67,45.38C386.33,44.59 330.62,67.44 290,85.17Q218.99,116.15 0,219.03" style="vector-effect: none; fill: none; stroke: rgb(255, 161, 90); stroke-opacity: 1; stroke-width: 0px; opacity: 1;"/></g><g class="points"/><g class="text"/></g><g class="trace scatter tracebf232e" style="stroke-miterlimit: 2;"><g class="fills"/><g class="errorbars"/><g class="lines"><path class="js-line" d="M193.33,128.15Q434.92,13.36 435,13.52C435.09,13.71 96.42,174.99 96.67,175.52C96.9,176.01 387.06,41 386.67,40.15C386.45,39.66 330.7,64.01 290,82.47Q219.08,114.64 0,218.68" style="vector-effect: none; fill: none; stroke: rgb(25, 211, 243); stroke-opacity: 1; stroke-width: 0px; opacity: 1;"/></g><g class="points"/><g class="text"/></g><g class="trace scatter tracebc6525" style="stroke-miterlimit: 2; opacity: 1;"><g class="fills"/><g class="errorbars"/><g class="lines"><path class="js-line" d="M193.33,149.52Q434.99,51.43 435,51.45C435.01,51.47 96.73,189.06 96.67,188.92C96.62,188.79 386.69,70.24 386.67,70.19C386.66,70.16 330.88,93.03 290,109.61Q219.25,138.3 0,226.55" style="vector-effect: none; fill: none; stroke: rgb(95, 70, 144); stroke-opacity: 1; stroke-width: 3px; opacity: 1;"/></g><g class="points"/><g class="text"/></g><g class="trace scatter traceb5d5e9" style="stroke-miterlimit: 2;"><g class="fills"><g><path class="js-fill" d="M193.33,148.9Q434.99,51.29 435,51.32C435.01,51.35 96.77,188.43 96.67,188.18C96.58,187.95 386.63,69.21 386.67,69.3C386.69,69.35 330.91,92.54 290,109.2Q219.28,138.01 0,225.77L0,227.05Q219.26,139.18 290,110.59C330.88,94.07 386.67,71.26 386.67,71.27C386.67,71.28 96.67,189.3 96.67,189.31C96.67,189.32 434.95,51.54 435,51.66Q435.04,51.76 193.33,150.63Z" style="fill: rgb(95, 70, 144); fill-opacity: 0.3; stroke-width: 0;"/></g></g><g class="errorbars"/><g class="lines"><path class="js-line" d="M193.33,150.63Q435.04,51.76 435,51.66C434.95,51.54 96.67,189.32 96.67,189.31C96.67,189.3 386.67,71.28 386.67,71.27C386.67,71.26 330.88,94.07 290,110.59Q219.26,139.18 0,227.05" style="vector-effect: none; fill: none; stroke: rgb(182, 232, 128); stroke-opacity: 1; stroke-width: 0px; opacity: 1;"/></g><g class="points"/><g class="text"/></g><g class="trace scatter trace1dd72e" style="stroke-miterlimit: 2;"><g class="fills"/><g class="errorbars"/><g class="lines"><path class="js-line" d="M193.33,148.9Q434.99,51.29 435,51.32C435.01,51.35 96.77,188.43 96.67,188.18C96.58,187.95 386.63,69.21 386.67,69.3C386.69,69.35 330.91,92.54 290,109.2Q219.28,138.01 0,225.77" style="vector-effect: none; fill: none; stroke: rgb(255, 151, 255); stroke-opacity: 1; stroke-width: 0px; opacity: 1;"/></g><g class="points"/><g class="text"/></g><g class="trace scatter trace963d35" style="stroke-miterlimit: 2; opacity: 1;"><g class="fills"/><g class="errorbars"/><g class="lines"><path class="js-line" d="M193.33,145.35Q434.98,41.57 435,41.61C435.02,41.65 96.59,186.99 96.67,187.18C96.74,187.35 386.83,63.97 386.67,63.58C386.58,63.36 330.83,86.53 290,103.53Q219.21,133 0,225.11" style="vector-effect: none; fill: none; stroke: rgb(102, 102, 102); stroke-opacity: 1; stroke-width: 3px; opacity: 1;"/></g><g class="points"/><g class="text"/></g><g class="trace scatter tracee5146e" style="stroke-miterlimit: 2;"><g class="fills"><g><path class="js-fill" d="M193.33,144.49Q434.99,39.44 435,39.47C435.02,39.51 96.55,186.52 96.67,186.79C96.78,187.04 386.79,62.52 386.67,62.24C386.6,62.08 330.85,85.65 290,102.84Q219.23,132.61 0,225.04L0,225.19Q219.2,133.29 290,103.97C330.82,87.06 386.56,64.05 386.67,64.3C386.85,64.74 96.73,187.67 96.67,187.53C96.6,187.38 435,42.64 435,42.63Q435,42.62 193.33,146.08Z" style="fill: rgb(102, 102, 102); fill-opacity: 0.3; stroke-width: 0;"/></g></g><g class="errorbars"/><g class="lines"><path class="js-line" d="M193.33,146.08Q435,42.62 435,42.63C435,42.64 96.6,187.38 96.67,187.53C96.73,187.67 386.85,64.74 386.67,64.3C386.56,64.05 330.82,87.06 290,103.97Q219.2,133.29 0,225.19" style="vector-effect: none; fill: none; stroke: rgb(99, 110, 250); stroke-opacity: 1; stroke-width: 0px; opacity: 1;"/></g><g class="points"/><g class="text"/></g><g class="trace scatter traced8594b" style="stroke-miterlimit: 2;"><g class="fills"/><g class="errorbars"/><g class="lines"><path class="js-line" d="M193.33,144.49Q434.99,39.44 435,39.47C435.02,39.51 96.55,186.52 96.67,186.79C96.78,187.04 386.79,62.52 386.67,62.24C386.6,62.08 330.85,85.65 290,102.84Q219.23,132.61 0,225.04" style="vector-effect: none; fill: none; stroke: rgb(239, 85, 59); stroke-opacity: 1; stroke-width: 0px; opacity: 1;"/></g><g class="points"/><g class="text"/></g><g class="trace scatter traceda006d" style="stroke-miterlimit: 2; opacity: 1;"><g class="fills"/><g class="errorbars"/><g class="lines"/><g class="points"/><g class="text"/></g><g class="trace scatter tracea8b410" style="stroke-miterlimit: 2; opacity: 1;"><g class="fills"/><g class="errorbars"/><g class="lines"/><g class="points"/><g class="text"/></g><g class="trace scatter trace703053" style="stroke-miterlimit: 2; opacity: 1;"><g class="fills"/><g class="errorbars"/><g class="lines"/><g class="points"/><g class="text"/></g><g class="trace scatter trace88a425" style="stroke-miterlimit: 2; opacity: 1;"><g class="fills"/><g class="errorbars"/><g class="lines"/><g class="points"/><g class="text"/></g><g class="trace scatter trace4adc18" style="stroke-miterlimit: 2; opacity: 1;"><g class="fills"/><g class="errorbars"/><g class="lines"/><g class="points"/><g class="text"/></g><g class="trace scatter traceda4401" style="stroke-miterlimit: 2; opacity: 1;"><g class="fills"/><g class="errorbars"/><g class="lines"/><g class="points"/><g class="text"/></g></g></g></g><path class="xlines-above crisp" d="M64,239.5H500" style="fill: none; stroke-width: 1px; stroke: rgb(0, 0, 0); stroke-opacity: 0.3;"/><path class="ylines-above crisp" d="M64.5,0V239" style="fill: none; stroke-width: 1px; stroke: rgb(0, 0, 0); stroke-opacity: 0.3;"/><g class="overlines-above"/><g class="xaxislayer-above"><g class="xtick"><text text-anchor="middle" x="0" y="264" transform="translate(65,0)" style="font-family: 'Open Sans', verdana, arial, sans-serif; font-size: 20px; fill: rgb(42, 63, 95); fill-opacity: 1; white-space: pre; opacity: 1;">0</text></g><g class="xtick"><text text-anchor="middle" x="0" y="264" style="font-family: 'Open Sans', verdana, arial, sans-serif; font-size: 20px; fill: rgb(42, 63, 95); fill-opacity: 1; white-space: pre; opacity: 1;" transform="translate(161.67000000000002,0)">200m</text></g><g class="xtick"><text text-anchor="middle" x="0" y="264" style="font-family: 'Open Sans', verdana, arial, sans-serif; font-size: 20px; fill: rgb(42, 63, 95); fill-opacity: 1; white-space: pre; opacity: 1;" transform="translate(258.33000000000004,0)">400m</text></g><g class="xtick"><text text-anchor="middle" x="0" y="264" style="font-family: 'Open Sans', verdana, arial, sans-serif; font-size: 20px; fill: rgb(42, 63, 95); fill-opacity: 1; white-space: pre; opacity: 1;" transform="translate(355,0)">600m</text></g><g class="xtick"><text text-anchor="middle" x="0" y="264" style="font-family: 'Open Sans', verdana, arial, sans-serif; font-size: 20px; fill: rgb(42, 63, 95); fill-opacity: 1; white-space: pre; opacity: 1;" transform="translate(451.67,0)">800m</text></g></g><g class="yaxislayer-above"><g class="ytick"><text text-anchor="end" x="60" y="7" transform="translate(0,231.23)" style="font-family: 'Open Sans', verdana, arial, sans-serif; font-size: 20px; fill: rgb(42, 63, 95); fill-opacity: 1; white-space: pre; opacity: 1;">0</text></g><g class="ytick"><text text-anchor="end" x="60" y="7" style="font-family: 'Open Sans', verdana, arial, sans-serif; font-size: 20px; fill: rgb(42, 63, 95); fill-opacity: 1; white-space: pre; opacity: 1;" transform="translate(0,182.82)">0.2</text></g><g class="ytick"><text text-anchor="end" x="60" y="7" style="font-family: 'Open Sans', verdana, arial, sans-serif; font-size: 20px; fill: rgb(42, 63, 95); fill-opacity: 1; white-space: pre; opacity: 1;" transform="translate(0,134.41)">0.4</text></g><g class="ytick"><text text-anchor="end" x="60" y="7" style="font-family: 'Open Sans', verdana, arial, sans-serif; font-size: 20px; fill: rgb(42, 63, 95); fill-opacity: 1; white-space: pre; opacity: 1;" transform="translate(0,86)">0.6</text></g><g class="ytick"><text text-anchor="end" x="60" y="7" style="font-family: 'Open Sans', verdana, arial, sans-serif; font-size: 20px; fill: rgb(42, 63, 95); fill-opacity: 1; white-space: pre; opacity: 1;" transform="translate(0,37.6)">0.8</text></g></g><g class="overaxes-above"/></g></g><g class="polarlayer"/><g class="smithlayer"/><g class="ternarylayer"/><g class="geolayer"/><g class="funnelarealayer"/><g class="pielayer"/><g class="iciclelayer"/><g class="treemaplayer"/><g class="sunburstlayer"/><g class="glimages"/><defs id="topdefs-db9238"><g class="clips"/></defs><g class="layer-above"><g class="imagelayer"/><g class="shapelayer"/></g><g class="infolayer"><g class="g-gtitle"/><g class="g-xtitle" transform="translate(0,-4.300000000000011)"><text class="xtitle" x="282.5" y="299.3" text-anchor="middle" style="opacity: 1; font-family: 'Open Sans', verdana, arial, sans-serif; font-size: 24px; fill: rgb(42, 63, 95); fill-opacity: 1; white-space: pre;">Noise variance</text></g><g class="g-ytitle" transform="translate(12.712890625,0)"><text class="ytitle" transform="rotate(-90,9.287500000000001,119.5)" x="9.287500000000001" y="119.5" text-anchor="middle" style="opacity: 1; font-family: 'Open Sans', verdana, arial, sans-serif; font-size: 24px; fill: rgb(42, 63, 95); fill-opacity: 1; white-space: pre;">state prediction MSE</text></g></g></svg>