<svg class="main-svg" xmlns="http://www.w3.org/2000/svg" xmlns:xlink="http://www.w3.org/1999/xlink" width="500" height="300" style="" viewBox="0 0 500 300"><rect x="0" y="0" width="500" height="300" style="fill: rgb(255, 255, 255); fill-opacity: 1;"/><defs id="defs-3b50c3"><g class="clips"><clipPath id="clip3b50c3xyplot" class="plotclip"><rect width="435" height="234"/></clipPath><clipPath class="axesclip" id="clip3b50c3x"><rect x="65" y="0" width="435" height="300"/></clipPath><clipPath class="axesclip" id="clip3b50c3y"><rect x="0" y="5" width="500" height="234"/></clipPath><clipPath class="axesclip" id="clip3b50c3xy"><rect x="65" y="5" width="435" height="234"/></clipPath></g><g class="gradients"/><g class="patterns"/></defs><g class="bglayer"/><g class="layer-below"><g class="imagelayer"/><g class="shapelayer"/></g><g class="cartesianlayer"><g class="subplot xy"><g class="layer-subplot"><g class="shapelayer"/><g class="imagelayer"/></g><g class="minor-gridlayer"><g class="x"/><g class="y"/></g><g class="gridlayer"><g class="x"><path class="xgrid crisp" transform="translate(149.29000000000002,0)" d="M0,5v234" style="stroke: rgb(0, 0, 0); stroke-opacity: 0.1; stroke-width: 1px;"/><path class="xgrid crisp" transform="translate(233.58,0)" d="M0,5v234" style="stroke: rgb(0, 0, 0); stroke-opacity: 0.1; stroke-width: 1px;"/><path class="xgrid crisp" transform="translate(317.86,0)" d="M0,5v234" style="stroke: rgb(0, 0, 0); stroke-opacity: 0.1; stroke-width: 1px;"/><path class="xgrid crisp" transform="translate(402.15,0)" d="M0,5v234" style="stroke: rgb(0, 0, 0); stroke-opacity: 0.1; stroke-width: 1px;"/><path class="xgrid crisp" transform="translate(486.44,0)" d="M0,5v234" style="stroke: rgb(0, 0, 0); stroke-opacity: 0.1; stroke-width: 1px;"/></g><g class="y"><path class="ygrid crisp" transform="translate(0,177.46)" d="M65,0h435" style="stroke: rgb(0, 0, 0); stroke-opacity: 0.1; stroke-width: 1px;"/><path class="ygrid crisp" transform="translate(0,121.99)" d="M65,0h435" style="stroke: rgb(0, 0, 0); stroke-opacity: 0.1; stroke-width: 1px;"/><path class="ygrid crisp" transform="translate(0,66.53)" d="M65,0h435" style="stroke: rgb(0, 0, 0); stroke-opacity: 0.1; stroke-width: 1px;"/><path class="ygrid crisp" transform="translate(0,11.059999999999999)" d="M65,0h435" style="stroke: rgb(0, 0, 0); stroke-opacity: 0.1; stroke-width: 1px;"/></g></g><g class="zerolinelayer"><path class="yzl zl crisp" transform="translate(0,232.92)" d="M65,0h435" style="stroke: rgb(255, 255, 255); stroke-opacity: 1; stroke-width: 2px;"/></g><g class="layer-between"><g class="shapelayer"/><g class="imagelayer"/></g><path class="xlines-below"/><path class="ylines-below"/><g class="overlines-below"/><g class="xaxislayer-below"/><g class="yaxislayer-below"/><g class="overaxes-below"/><g class="overplot"><g class="xy" transform="translate(65,5)" clip-path="url(#clip3b50c3xyplot)"><g class="scatterlayer mlayer"><g class="trace scatter traced1a30c" style="stroke-miterlimit: 2; opacity: 1;"><g class="fills"/><g class="errorbars"/><g class="lines"><path class="js-line" d="M0,211.75Q2.84,208.49 4.32,207.04C5.73,205.66 7.19,204.43 8.65,203.21C10.07,202.03 11.52,200.92 12.97,199.83C14.4,198.76 15.85,197.73 17.3,196.73C18.73,195.74 20.17,194.78 21.62,193.84C23.06,192.9 24.5,191.99 25.95,191.09C27.39,190.2 28.83,189.34 30.27,188.49C31.71,187.64 33.15,186.8 34.59,185.98C36.03,185.16 37.48,184.35 38.92,183.55C40.36,182.75 41.8,181.97 43.24,181.19C44.68,180.41 46.13,179.65 47.57,178.89C49.01,178.13 50.45,177.37 51.89,176.63C53.33,175.89 54.78,175.16 56.22,174.44C57.66,173.72 59.1,173 60.54,172.29C61.98,171.58 63.42,170.88 64.86,170.19C66.3,169.5 67.75,168.81 69.19,168.13C70.63,167.45 72.07,166.78 73.51,166.12C74.95,165.46 76.4,164.8 77.84,164.15C79.28,163.5 80.72,162.86 82.16,162.22C83.6,161.58 85.05,160.94 86.49,160.31C87.93,159.68 89.37,159.06 90.81,158.44C92.25,157.82 93.69,157.21 95.13,156.6C96.57,155.99 98.02,155.39 99.46,154.79C100.9,154.19 102.34,153.59 103.78,153C105.22,152.41 106.67,151.83 108.11,151.24C109.55,150.66 110.99,150.07 112.43,149.49C113.87,148.91 115.32,148.34 116.76,147.77C118.2,147.2 119.64,146.63 121.08,146.06C122.52,145.49 123.96,144.93 125.4,144.37C126.84,143.81 128.29,143.25 129.73,142.7C131.17,142.15 132.61,141.6 134.05,141.05C135.49,140.5 136.94,139.96 138.38,139.42C139.82,138.88 141.26,138.34 142.7,137.8C144.14,137.26 145.58,136.73 147.02,136.2C148.46,135.67 149.91,135.15 151.35,134.62C152.79,134.1 154.23,133.57 155.67,133.05C157.11,132.53 158.56,132.01 160,131.49C161.44,130.97 162.88,130.45 164.32,129.94C165.76,129.42 167.21,128.91 168.65,128.4C170.09,127.89 171.53,127.39 172.97,126.88C174.41,126.38 175.85,125.87 177.29,125.37C178.73,124.87 180.18,124.37 181.62,123.87C183.06,123.37 184.5,122.88 185.94,122.39C187.38,121.9 188.83,121.42 190.27,120.93C191.71,120.44 193.15,119.95 194.59,119.47C196.03,118.99 197.48,118.52 198.92,118.04C200.36,117.56 201.8,117.09 203.24,116.61C204.68,116.14 206.12,115.66 207.56,115.19C209,114.72 210.45,114.25 211.89,113.78C213.33,113.31 214.77,112.84 216.21,112.38C217.65,111.91 219.1,111.45 220.54,110.99C221.98,110.53 223.42,110.07 224.86,109.62C226.3,109.16 227.75,108.71 229.19,108.26C230.63,107.81 232.07,107.36 233.51,106.91C234.95,106.46 236.39,106.02 237.83,105.57C239.27,105.12 240.72,104.68 242.16,104.23C243.6,103.79 245.04,103.34 246.48,102.9C247.92,102.46 249.37,102.03 250.81,101.59C252.25,101.15 253.69,100.71 255.13,100.28C256.57,99.85 258.02,99.42 259.46,98.99C260.9,98.56 262.34,98.14 263.78,97.71C265.22,97.28 266.66,96.85 268.1,96.43C269.54,96 270.99,95.58 272.43,95.16C273.87,94.74 275.31,94.32 276.75,93.9C278.19,93.48 279.64,93.06 281.08,92.64C282.52,92.22 283.96,91.8 285.4,91.39C286.84,90.97 288.29,90.56 289.73,90.15C291.17,89.74 292.61,89.32 294.05,88.91C295.49,88.5 296.93,88.09 298.37,87.68C299.81,87.27 301.26,86.86 302.7,86.45C304.14,86.04 305.58,85.63 307.02,85.22C308.46,84.81 309.91,84.41 311.35,84.01C312.79,83.61 314.23,83.2 315.67,82.8C317.11,82.4 318.56,81.99 320,81.59C321.44,81.19 322.88,80.79 324.32,80.39C325.76,79.99 327.2,79.59 328.64,79.19C330.08,78.79 331.53,78.4 332.97,78C334.41,77.6 335.85,77.2 337.29,76.81C338.73,76.42 340.18,76.03 341.62,75.64C343.06,75.25 344.5,74.86 345.94,74.47C347.38,74.08 348.83,73.69 350.27,73.3C351.71,72.91 353.15,72.53 354.59,72.14C356.03,71.76 357.47,71.37 358.91,70.99C360.35,70.61 361.8,70.23 363.24,69.85C364.68,69.47 366.12,69.09 367.56,68.71C369,68.33 370.45,67.96 371.89,67.58C373.33,67.2 374.77,66.83 376.21,66.45C377.65,66.07 379.1,65.7 380.54,65.32C381.98,64.94 383.42,64.57 384.86,64.19C386.3,63.82 387.74,63.44 389.18,63.07C390.62,62.7 392.07,62.33 393.51,61.96C394.95,61.59 396.39,61.22 397.83,60.85C399.27,60.48 400.72,60.12 402.16,59.75C403.6,59.38 405.04,59.01 406.48,58.64C407.92,58.27 409.36,57.9 410.8,57.54C412.24,57.17 413.69,56.81 415.13,56.45C416.57,56.09 418.01,55.72 419.45,55.36C420.89,55 422.34,54.63 423.78,54.27Q425.22,53.91 428.1,53.18" style="vector-effect: none; fill: none; stroke: rgb(95, 70, 144); stroke-opacity: 1; stroke-dasharray: 9px, 9px; stroke-width: 2px; opacity: 1;"/></g><g class="points"/><g class="text"/></g><g class="trace scatter trace1259ea" style="stroke-miterlimit: 2;"><g class="fills"><g><path class="js-fill" d="M0,211.75Q2.84,208.49 4.32,207.04C5.73,205.66 7.19,204.43 8.65,203.21C10.07,202.03 11.52,200.92 12.97,199.83C14.4,198.76 15.85,197.73 17.3,196.73C18.73,195.74 20.17,194.78 21.62,193.84C23.06,192.9 24.5,191.99 25.95,191.09C27.39,190.2 28.83,189.34 30.27,188.49C31.71,187.64 33.15,186.8 34.59,185.98C36.03,185.16 37.48,184.35 38.92,183.55C40.36,182.75 41.8,181.97 43.24,181.19C44.68,180.41 46.13,179.65 47.57,178.89C49.01,178.13 50.45,177.37 51.89,176.63C53.33,175.89 54.78,175.16 56.22,174.44C57.66,173.72 59.1,173 60.54,172.29C61.98,171.58 63.42,170.88 64.86,170.19C66.3,169.5 67.75,168.81 69.19,168.13C70.63,167.45 72.07,166.78 73.51,166.12C74.95,165.46 76.4,164.8 77.84,164.15C79.28,163.5 80.72,162.86 82.16,162.22C83.6,161.58 85.05,160.94 86.49,160.31C87.93,159.68 89.37,159.06 90.81,158.44C92.25,157.82 93.69,157.21 95.13,156.6C96.57,155.99 98.02,155.39 99.46,154.79C100.9,154.19 102.34,153.59 103.78,153C105.22,152.41 106.67,151.83 108.11,151.24C109.55,150.66 110.99,150.07 112.43,149.49C113.87,148.91 115.32,148.34 116.76,147.77C118.2,147.2 119.64,146.63 121.08,146.06C122.52,145.49 123.96,144.93 125.4,144.37C126.84,143.81 128.29,143.25 129.73,142.7C131.17,142.15 132.61,141.6 134.05,141.05C135.49,140.5 136.94,139.96 138.38,139.42C139.82,138.88 141.26,138.34 142.7,137.8C144.14,137.26 145.58,136.73 147.02,136.2C148.46,135.67 149.91,135.15 151.35,134.62C152.79,134.1 154.23,133.57 155.67,133.05C157.11,132.53 158.56,132.01 160,131.49C161.44,130.97 162.88,130.45 164.32,129.94C165.76,129.42 167.21,128.91 168.65,128.4C170.09,127.89 171.53,127.39 172.97,126.88C174.41,126.38 175.85,125.87 177.29,125.37C178.73,124.87 180.18,124.37 181.62,123.87C183.06,123.37 184.5,122.88 185.94,122.39C187.38,121.9 188.83,121.42 190.27,120.93C191.71,120.44 193.15,119.95 194.59,119.47C196.03,118.99 197.48,118.52 198.92,118.04C200.36,117.56 201.8,117.09 203.24,116.61C204.68,116.14 206.12,115.66 207.56,115.19C209,114.72 210.45,114.25 211.89,113.78C213.33,113.31 214.77,112.84 216.21,112.38C217.65,111.91 219.1,111.45 220.54,110.99C221.98,110.53 223.42,110.07 224.86,109.62C226.3,109.16 227.75,108.71 229.19,108.26C230.63,107.81 232.07,107.36 233.51,106.91C234.95,106.46 236.39,106.02 237.83,105.57C239.27,105.12 240.72,104.68 242.16,104.23C243.6,103.79 245.04,103.34 246.48,102.9C247.92,102.46 249.37,102.03 250.81,101.59C252.25,101.15 253.69,100.71 255.13,100.28C256.57,99.85 258.02,99.42 259.46,98.99C260.9,98.56 262.34,98.14 263.78,97.71C265.22,97.28 266.66,96.85 268.1,96.43C269.54,96 270.99,95.58 272.43,95.16C273.87,94.74 275.31,94.32 276.75,93.9C278.19,93.48 279.64,93.06 281.08,92.64C282.52,92.22 283.96,91.8 285.4,91.39C286.84,90.97 288.29,90.56 289.73,90.15C291.17,89.74 292.61,89.32 294.05,88.91C295.49,88.5 296.93,88.09 298.37,87.68C299.81,87.27 301.26,86.86 302.7,86.45C304.14,86.04 305.58,85.63 307.02,85.22C308.46,84.81 309.91,84.41 311.35,84.01C312.79,83.61 314.23,83.2 315.67,82.8C317.11,82.4 318.56,81.99 320,81.59C321.44,81.19 322.88,80.79 324.32,80.39C325.76,79.99 327.2,79.59 328.64,79.19C330.08,78.79 331.53,78.4 332.97,78C334.41,77.6 335.85,77.2 337.29,76.81C338.73,76.42 340.18,76.03 341.62,75.64C343.06,75.25 344.5,74.86 345.94,74.47C347.38,74.08 348.83,73.69 350.27,73.3C351.71,72.91 353.15,72.53 354.59,72.14C356.03,71.76 357.47,71.37 358.91,70.99C360.35,70.61 361.8,70.23 363.24,69.85C364.68,69.47 366.12,69.09 367.56,68.71C369,68.33 370.45,67.96 371.89,67.58C373.33,67.2 374.77,66.83 376.21,66.45C377.65,66.07 379.1,65.7 380.54,65.32C381.98,64.94 383.42,64.57 384.86,64.19C386.3,63.82 387.74,63.44 389.18,63.07C390.62,62.7 392.07,62.33 393.51,61.96C394.95,61.59 396.39,61.22 397.83,60.85C399.27,60.48 400.72,60.12 402.16,59.75C403.6,59.38 405.04,59.01 406.48,58.64C407.92,58.27 409.36,57.9 410.8,57.54C412.24,57.17 413.69,56.81 415.13,56.45C416.57,56.09 418.01,55.72 419.45,55.36C420.89,55 422.34,54.63 423.78,54.27Q425.22,53.91 428.1,53.18L428.1,53.18Q425.22,53.91 423.78,54.27C422.34,54.63 420.89,55 419.45,55.36C418.01,55.72 416.57,56.09 415.13,56.45C413.69,56.81 412.24,57.17 410.8,57.54C409.36,57.9 407.92,58.27 406.48,58.64C405.04,59.01 403.6,59.38 402.16,59.75C400.72,60.12 399.27,60.48 397.83,60.85C396.39,61.22 394.95,61.59 393.51,61.96C392.07,62.33 390.62,62.7 389.18,63.07C387.74,63.44 386.3,63.82 384.86,64.19C383.42,64.57 381.98,64.94 380.54,65.32C379.1,65.7 377.65,66.07 376.21,66.45C374.77,66.83 373.33,67.2 371.89,67.58C370.45,67.96 369,68.33 367.56,68.71C366.12,69.09 364.68,69.47 363.24,69.85C361.8,70.23 360.35,70.61 358.91,70.99C357.47,71.37 356.03,71.76 354.59,72.14C353.15,72.53 351.71,72.91 350.27,73.3C348.83,73.69 347.38,74.08 345.94,74.47C344.5,74.86 343.06,75.25 341.62,75.64C340.18,76.03 338.73,76.42 337.29,76.81C335.85,77.2 334.41,77.6 332.97,78C331.53,78.4 330.08,78.79 328.64,79.19C327.2,79.59 325.76,79.99 324.32,80.39C322.88,80.79 321.44,81.19 320,81.59C318.56,81.99 317.11,82.4 315.67,82.8C314.23,83.2 312.79,83.61 311.35,84.01C309.91,84.41 308.46,84.81 307.02,85.22C305.58,85.63 304.14,86.04 302.7,86.45C301.26,86.86 299.81,87.27 298.37,87.68C296.93,88.09 295.49,88.5 294.05,88.91C292.61,89.32 291.17,89.74 289.73,90.15C288.29,90.56 286.84,90.97 285.4,91.39C283.96,91.8 282.52,92.22 281.08,92.64C279.64,93.06 278.19,93.48 276.75,93.9C275.31,94.32 273.87,94.74 272.43,95.16C270.99,95.58 269.54,96 268.1,96.43C266.66,96.85 265.22,97.28 263.78,97.71C262.34,98.14 260.9,98.56 259.46,98.99C258.02,99.42 256.57,99.85 255.13,100.28C253.69,100.71 252.25,101.15 250.81,101.59C249.37,102.03 247.92,102.46 246.48,102.9C245.04,103.34 243.6,103.79 242.16,104.23C240.72,104.68 239.27,105.12 237.83,105.57C236.39,106.02 234.95,106.46 233.51,106.91C232.07,107.36 230.63,107.81 229.19,108.26C227.75,108.71 226.3,109.16 224.86,109.62C223.42,110.07 221.98,110.53 220.54,110.99C219.1,111.45 217.65,111.91 216.21,112.38C214.77,112.84 213.33,113.31 211.89,113.78C210.45,114.25 209,114.72 207.56,115.19C206.12,115.66 204.68,116.14 203.24,116.61C201.8,117.09 200.36,117.56 198.92,118.04C197.48,118.52 196.03,118.99 194.59,119.47C193.15,119.95 191.71,120.44 190.27,120.93C188.83,121.42 187.38,121.9 185.94,122.39C184.5,122.88 183.06,123.37 181.62,123.87C180.18,124.37 178.73,124.87 177.29,125.37C175.85,125.87 174.41,126.38 172.97,126.88C171.53,127.39 170.09,127.89 168.65,128.4C167.21,128.91 165.76,129.42 164.32,129.94C162.88,130.45 161.44,130.97 160,131.49C158.56,132.01 157.11,132.53 155.67,133.05C154.23,133.57 152.79,134.1 151.35,134.62C149.91,135.15 148.46,135.67 147.02,136.2C145.58,136.73 144.14,137.26 142.7,137.8C141.26,138.34 139.82,138.88 138.38,139.42C136.94,139.96 135.49,140.5 134.05,141.05C132.61,141.6 131.17,142.15 129.73,142.7C128.29,143.25 126.84,143.81 125.4,144.37C123.96,144.93 122.52,145.49 121.08,146.06C119.64,146.63 118.2,147.2 116.76,147.77C115.32,148.34 113.87,148.91 112.43,149.49C110.99,150.07 109.55,150.66 108.11,151.24C106.67,151.83 105.22,152.41 103.78,153C102.34,153.59 100.9,154.19 99.46,154.79C98.02,155.39 96.57,155.99 95.13,156.6C93.69,157.21 92.25,157.82 90.81,158.44C89.37,159.06 87.93,159.68 86.49,160.31C85.05,160.94 83.6,161.58 82.16,162.22C80.72,162.86 79.28,163.5 77.84,164.15C76.4,164.8 74.95,165.46 73.51,166.12C72.07,166.78 70.63,167.45 69.19,168.13C67.75,168.81 66.3,169.5 64.86,170.19C63.42,170.88 61.98,171.58 60.54,172.29C59.1,173 57.66,173.72 56.22,174.44C54.78,175.16 53.33,175.89 51.89,176.63C50.45,177.37 49.01,178.13 47.57,178.89C46.13,179.65 44.68,180.41 43.24,181.19C41.8,181.97 40.36,182.75 38.92,183.55C37.48,184.35 36.03,185.16 34.59,185.98C33.15,186.8 31.71,187.64 30.27,188.49C28.83,189.34 27.39,190.2 25.95,191.09C24.5,191.99 23.06,192.9 21.62,193.84C20.17,194.78 18.73,195.74 17.3,196.73C15.85,197.73 14.4,198.76 12.97,199.83C11.52,200.92 10.07,202.03 8.65,203.21C7.19,204.43 5.73,205.66 4.32,207.04Q2.84,208.49 0,211.75Z" style="fill: rgb(95, 70, 144); fill-opacity: 0.3; stroke-width: 0;"/></g></g><g class="errorbars"/><g class="lines"><path class="js-line" d="M0,211.75Q2.84,208.49 4.32,207.04C5.73,205.66 7.19,204.43 8.65,203.21C10.07,202.03 11.52,200.92 12.97,199.83C14.4,198.76 15.85,197.73 17.3,196.73C18.73,195.74 20.17,194.78 21.62,193.84C23.06,192.9 24.5,191.99 25.95,191.09C27.39,190.2 28.83,189.34 30.27,188.49C31.71,187.64 33.15,186.8 34.59,185.98C36.03,185.16 37.48,184.35 38.92,183.55C40.36,182.75 41.8,181.97 43.24,181.19C44.68,180.41 46.13,179.65 47.57,178.89C49.01,178.13 50.45,177.37 51.89,176.63C53.33,175.89 54.78,175.16 56.22,174.44C57.66,173.72 59.1,173 60.54,172.29C61.98,171.58 63.42,170.88 64.86,170.19C66.3,169.5 67.75,168.81 69.19,168.13C70.63,167.45 72.07,166.78 73.51,166.12C74.95,165.46 76.4,164.8 77.84,164.15C79.28,163.5 80.72,162.86 82.16,162.22C83.6,161.58 85.05,160.94 86.49,160.31C87.93,159.68 89.37,159.06 90.81,158.44C92.25,157.82 93.69,157.21 95.13,156.6C96.57,155.99 98.02,155.39 99.46,154.79C100.9,154.19 102.34,153.59 103.78,153C105.22,152.41 106.67,151.83 108.11,151.24C109.55,150.66 110.99,150.07 112.43,149.49C113.87,148.91 115.32,148.34 116.76,147.77C118.2,147.2 119.64,146.63 121.08,146.06C122.52,145.49 123.96,144.93 125.4,144.37C126.84,143.81 128.29,143.25 129.73,142.7C131.17,142.15 132.61,141.6 134.05,141.05C135.49,140.5 136.94,139.96 138.38,139.42C139.82,138.88 141.26,138.34 142.7,137.8C144.14,137.26 145.58,136.73 147.02,136.2C148.46,135.67 149.91,135.15 151.35,134.62C152.79,134.1 154.23,133.57 155.67,133.05C157.11,132.53 158.56,132.01 160,131.49C161.44,130.97 162.88,130.45 164.32,129.94C165.76,129.42 167.21,128.91 168.65,128.4C170.09,127.89 171.53,127.39 172.97,126.88C174.41,126.38 175.85,125.87 177.29,125.37C178.73,124.87 180.18,124.37 181.62,123.87C183.06,123.37 184.5,122.88 185.94,122.39C187.38,121.9 188.83,121.42 190.27,120.93C191.71,120.44 193.15,119.95 194.59,119.47C196.03,118.99 197.48,118.52 198.92,118.04C200.36,117.56 201.8,117.09 203.24,116.61C204.68,116.14 206.12,115.66 207.56,115.19C209,114.72 210.45,114.25 211.89,113.78C213.33,113.31 214.77,112.84 216.21,112.38C217.65,111.91 219.1,111.45 220.54,110.99C221.98,110.53 223.42,110.07 224.86,109.62C226.3,109.16 227.75,108.71 229.19,108.26C230.63,107.81 232.07,107.36 233.51,106.91C234.95,106.46 236.39,106.02 237.83,105.57C239.27,105.12 240.72,104.68 242.16,104.23C243.6,103.79 245.04,103.34 246.48,102.9C247.92,102.46 249.37,102.03 250.81,101.59C252.25,101.15 253.69,100.71 255.13,100.28C256.57,99.85 258.02,99.42 259.46,98.99C260.9,98.56 262.34,98.14 263.78,97.71C265.22,97.28 266.66,96.85 268.1,96.43C269.54,96 270.99,95.58 272.43,95.16C273.87,94.74 275.31,94.32 276.75,93.9C278.19,93.48 279.64,93.06 281.08,92.64C282.52,92.22 283.96,91.8 285.4,91.39C286.84,90.97 288.29,90.56 289.73,90.15C291.17,89.74 292.61,89.32 294.05,88.91C295.49,88.5 296.93,88.09 298.37,87.68C299.81,87.27 301.26,86.86 302.7,86.45C304.14,86.04 305.58,85.63 307.02,85.22C308.46,84.81 309.91,84.41 311.35,84.01C312.79,83.61 314.23,83.2 315.67,82.8C317.11,82.4 318.56,81.99 320,81.59C321.44,81.19 322.88,80.79 324.32,80.39C325.76,79.99 327.2,79.59 328.64,79.19C330.08,78.79 331.53,78.4 332.97,78C334.41,77.6 335.85,77.2 337.29,76.81C338.73,76.42 340.18,76.03 341.62,75.64C343.06,75.25 344.5,74.86 345.94,74.47C347.38,74.08 348.83,73.69 350.27,73.3C351.71,72.91 353.15,72.53 354.59,72.14C356.03,71.76 357.47,71.37 358.91,70.99C360.35,70.61 361.8,70.23 363.24,69.85C364.68,69.47 366.12,69.09 367.56,68.71C369,68.33 370.45,67.96 371.89,67.58C373.33,67.2 374.77,66.83 376.21,66.45C377.65,66.07 379.1,65.7 380.54,65.32C381.98,64.94 383.42,64.57 384.86,64.19C386.3,63.82 387.74,63.44 389.18,63.07C390.62,62.7 392.07,62.33 393.51,61.96C394.95,61.59 396.39,61.22 397.83,60.85C399.27,60.48 400.72,60.12 402.16,59.75C403.6,59.38 405.04,59.01 406.48,58.64C407.92,58.27 409.36,57.9 410.8,57.54C412.24,57.17 413.69,56.81 415.13,56.45C416.57,56.09 418.01,55.72 419.45,55.36C420.89,55 422.34,54.63 423.78,54.27Q425.22,53.91 428.1,53.18" style="vector-effect: none; fill: none; stroke: rgb(239, 85, 59); stroke-opacity: 1; stroke-width: 0px; opacity: 1;"/></g><g class="points"/><g class="text"/></g><g class="trace scatter trace6a6926" style="stroke-miterlimit: 2;"><g class="fills"/><g class="errorbars"/><g class="lines"><path class="js-line" d="M0,211.75Q2.84,208.49 4.32,207.04C5.73,205.66 7.19,204.43 8.65,203.21C10.07,202.03 11.52,200.92 12.97,199.83C14.4,198.76 15.85,197.73 17.3,196.73C18.73,195.74 20.17,194.78 21.62,193.84C23.06,192.9 24.5,191.99 25.95,191.09C27.39,190.2 28.83,189.34 30.27,188.49C31.71,187.64 33.15,186.8 34.59,185.98C36.03,185.16 37.48,184.35 38.92,183.55C40.36,182.75 41.8,181.97 43.24,181.19C44.68,180.41 46.13,179.65 47.57,178.89C49.01,178.13 50.45,177.37 51.89,176.63C53.33,175.89 54.78,175.16 56.22,174.44C57.66,173.72 59.1,173 60.54,172.29C61.98,171.58 63.42,170.88 64.86,170.19C66.3,169.5 67.75,168.81 69.19,168.13C70.63,167.45 72.07,166.78 73.51,166.12C74.95,165.46 76.4,164.8 77.84,164.15C79.28,163.5 80.72,162.86 82.16,162.22C83.6,161.58 85.05,160.94 86.49,160.31C87.93,159.68 89.37,159.06 90.81,158.44C92.25,157.82 93.69,157.21 95.13,156.6C96.57,155.99 98.02,155.39 99.46,154.79C100.9,154.19 102.34,153.59 103.78,153C105.22,152.41 106.67,151.83 108.11,151.24C109.55,150.66 110.99,150.07 112.43,149.49C113.87,148.91 115.32,148.34 116.76,147.77C118.2,147.2 119.64,146.63 121.08,146.06C122.52,145.49 123.96,144.93 125.4,144.37C126.84,143.81 128.29,143.25 129.73,142.7C131.17,142.15 132.61,141.6 134.05,141.05C135.49,140.5 136.94,139.96 138.38,139.42C139.82,138.88 141.26,138.34 142.7,137.8C144.14,137.26 145.58,136.73 147.02,136.2C148.46,135.67 149.91,135.15 151.35,134.62C152.79,134.1 154.23,133.57 155.67,133.05C157.11,132.53 158.56,132.01 160,131.49C161.44,130.97 162.88,130.45 164.32,129.94C165.76,129.42 167.21,128.91 168.65,128.4C170.09,127.89 171.53,127.39 172.97,126.88C174.41,126.38 175.85,125.87 177.29,125.37C178.73,124.87 180.18,124.37 181.62,123.87C183.06,123.37 184.5,122.88 185.94,122.39C187.38,121.9 188.83,121.42 190.27,120.93C191.71,120.44 193.15,119.95 194.59,119.47C196.03,118.99 197.48,118.52 198.92,118.04C200.36,117.56 201.8,117.09 203.24,116.61C204.68,116.14 206.12,115.66 207.56,115.19C209,114.72 210.45,114.25 211.89,113.78C213.33,113.31 214.77,112.84 216.21,112.38C217.65,111.91 219.1,111.45 220.54,110.99C221.98,110.53 223.42,110.07 224.86,109.62C226.3,109.16 227.75,108.71 229.19,108.26C230.63,107.81 232.07,107.36 233.51,106.91C234.95,106.46 236.39,106.02 237.83,105.57C239.27,105.12 240.72,104.68 242.16,104.23C243.6,103.79 245.04,103.34 246.48,102.9C247.92,102.46 249.37,102.03 250.81,101.59C252.25,101.15 253.69,100.71 255.13,100.28C256.57,99.85 258.02,99.42 259.46,98.99C260.9,98.56 262.34,98.14 263.78,97.71C265.22,97.28 266.66,96.85 268.1,96.43C269.54,96 270.99,95.58 272.43,95.16C273.87,94.74 275.31,94.32 276.75,93.9C278.19,93.48 279.64,93.06 281.08,92.64C282.52,92.22 283.96,91.8 285.4,91.39C286.84,90.97 288.29,90.56 289.73,90.15C291.17,89.74 292.61,89.32 294.05,88.91C295.49,88.5 296.93,88.09 298.37,87.68C299.81,87.27 301.26,86.86 302.7,86.45C304.14,86.04 305.58,85.63 307.02,85.22C308.46,84.81 309.91,84.41 311.35,84.01C312.79,83.61 314.23,83.2 315.67,82.8C317.11,82.4 318.56,81.99 320,81.59C321.44,81.19 322.88,80.79 324.32,80.39C325.76,79.99 327.2,79.59 328.64,79.19C330.08,78.79 331.53,78.4 332.97,78C334.41,77.6 335.85,77.2 337.29,76.81C338.73,76.42 340.18,76.03 341.62,75.64C343.06,75.25 344.5,74.86 345.94,74.47C347.38,74.08 348.83,73.69 350.27,73.3C351.71,72.91 353.15,72.53 354.59,72.14C356.03,71.76 357.47,71.37 358.91,70.99C360.35,70.61 361.8,70.23 363.24,69.85C364.68,69.47 366.12,69.09 367.56,68.71C369,68.33 370.45,67.96 371.89,67.58C373.33,67.2 374.77,66.83 376.21,66.45C377.65,66.07 379.1,65.7 380.54,65.32C381.98,64.94 383.42,64.57 384.86,64.19C386.3,63.82 387.74,63.44 389.18,63.07C390.62,62.7 392.07,62.33 393.51,61.96C394.95,61.59 396.39,61.22 397.83,60.85C399.27,60.48 400.72,60.12 402.16,59.75C403.6,59.38 405.04,59.01 406.48,58.64C407.92,58.27 409.36,57.9 410.8,57.54C412.24,57.17 413.69,56.81 415.13,56.45C416.57,56.09 418.01,55.72 419.45,55.36C420.89,55 422.34,54.63 423.78,54.27Q425.22,53.91 428.1,53.18" style="vector-effect: none; fill: none; stroke: rgb(0, 204, 150); stroke-opacity: 1; stroke-width: 0px; opacity: 1;"/></g><g class="points"/><g class="text"/></g><g class="trace scatter trace30b372" style="stroke-miterlimit: 2; opacity: 1;"><g class="fills"/><g class="errorbars"/><g class="lines"><path class="js-line" d="M0,210.49Q2.89,207.23 4.39,205.74C5.83,204.31 7.31,203 8.79,201.71C10.24,200.45 11.7,199.24 13.18,198.06C14.64,196.9 16.11,195.77 17.58,194.67C19.04,193.58 20.5,192.53 21.97,191.48C23.43,190.44 24.89,189.42 26.36,188.42C27.82,187.42 29.29,186.45 30.76,185.49C32.22,184.53 33.68,183.58 35.15,182.65C36.61,181.72 38.08,180.8 39.55,179.89C41.01,178.98 42.47,178.08 43.94,177.19C45.4,176.3 46.86,175.43 48.33,174.56C49.79,173.69 51.26,172.83 52.73,171.97C54.19,171.12 55.65,170.27 57.12,169.43C58.58,168.59 60.05,167.76 61.52,166.93C62.98,166.11 64.45,165.29 65.91,164.48C67.37,163.67 68.83,162.86 70.3,162.06C71.76,161.26 73.23,160.47 74.7,159.68C76.16,158.89 77.63,158.1 79.09,157.32C80.55,156.54 82.01,155.76 83.48,154.99C84.94,154.22 86.41,153.45 87.88,152.69C89.34,151.93 90.8,151.17 92.27,150.42C93.73,149.67 95.2,148.92 96.67,148.17C98.13,147.42 99.6,146.68 101.06,145.94C102.52,145.2 103.98,144.46 105.45,143.72C106.91,142.98 108.38,142.25 109.85,141.52C111.31,140.79 112.78,140.07 114.24,139.34C115.71,138.61 117.17,137.88 118.64,137.16C120.1,136.44 121.57,135.72 123.03,135.01C124.49,134.3 125.96,133.59 127.42,132.88C128.89,132.17 130.35,131.47 131.82,130.76C133.28,130.06 134.75,129.35 136.21,128.65C137.68,127.95 139.14,127.25 140.61,126.56C142.07,125.87 143.54,125.18 145,124.49C146.46,123.8 147.93,123.11 149.39,122.43C150.86,121.75 152.32,121.07 153.79,120.39C155.25,119.71 156.72,119.04 158.18,118.37C159.65,117.7 161.11,117.04 162.58,116.37C164.04,115.71 165.51,115.04 166.97,114.38C168.43,113.72 169.9,113.06 171.36,112.4C172.83,111.74 174.29,111.09 175.76,110.43C177.22,109.78 178.69,109.12 180.15,108.47C181.62,107.82 183.08,107.18 184.55,106.53C186.01,105.89 187.48,105.24 188.94,104.6C190.4,103.96 191.87,103.32 193.33,102.68C194.8,102.04 196.26,101.4 197.73,100.77C199.19,100.14 200.66,99.51 202.12,98.88C203.59,98.25 205.05,97.63 206.52,97C207.98,96.38 209.45,95.75 210.91,95.13C212.37,94.51 213.84,93.9 215.3,93.28C216.77,92.66 218.23,92.04 219.7,91.43C221.16,90.82 222.63,90.21 224.09,89.6C225.55,88.99 227.02,88.39 228.48,87.78C229.95,87.17 231.41,86.56 232.88,85.96C234.34,85.36 235.81,84.76 237.27,84.16C238.74,83.56 240.2,82.96 241.67,82.37C243.13,81.78 244.6,81.19 246.06,80.6C247.52,80.01 248.99,79.41 250.45,78.82C251.92,78.23 253.38,77.65 254.85,77.06C256.31,76.48 257.78,75.89 259.24,75.31C260.71,74.73 262.17,74.14 263.64,73.56C265.1,72.98 266.57,72.41 268.03,71.83C269.49,71.25 270.95,70.67 272.42,70.1C273.88,69.53 275.35,68.97 276.82,68.4C278.28,67.83 279.75,67.26 281.21,66.69C282.68,66.12 284.14,65.56 285.61,65C287.07,64.44 288.54,63.88 290,63.32C291.46,62.76 292.93,62.21 294.39,61.65C295.86,61.09 297.32,60.54 298.79,59.98C300.25,59.42 301.72,58.86 303.18,58.31C304.65,57.75 306.11,57.2 307.58,56.65C309.04,56.1 310.51,55.55 311.97,55C313.43,54.45 314.9,53.9 316.36,53.35C317.83,52.8 319.29,52.26 320.76,51.71C322.22,51.16 323.69,50.61 325.15,50.07C326.62,49.53 328.08,48.99 329.55,48.45C331.01,47.91 332.48,47.36 333.94,46.82C335.4,46.28 336.87,45.74 338.33,45.21C339.8,44.67 341.26,44.14 342.73,43.61C344.19,43.08 345.66,42.55 347.12,42.02C348.59,41.49 350.05,40.97 351.52,40.44C352.98,39.92 354.45,39.39 355.91,38.87C357.37,38.35 358.84,37.83 360.3,37.31C361.77,36.79 363.23,36.28 364.7,35.76C366.16,35.25 367.63,34.73 369.09,34.22C370.55,33.71 372.02,33.2 373.48,32.69C374.95,32.18 376.41,31.68 377.88,31.17C379.34,30.67 380.81,30.16 382.27,29.66C383.74,29.15 385.2,28.65 386.67,28.14C388.13,27.64 389.6,27.13 391.06,26.63C392.52,26.13 393.99,25.62 395.45,25.12C396.92,24.62 398.38,24.11 399.85,23.61C401.31,23.11 402.78,22.61 404.24,22.11C405.71,21.61 407.17,21.11 408.64,20.61C410.1,20.11 411.57,19.61 413.03,19.11C414.49,18.61 415.96,18.11 417.42,17.62C418.89,17.12 420.35,16.63 421.82,16.14C423.28,15.65 424.75,15.15 426.21,14.66C427.68,14.17 429.14,13.67 430.61,13.18Q432.07,12.69 435,11.7" style="vector-effect: none; fill: none; stroke: rgb(102, 102, 102); stroke-opacity: 1; stroke-dasharray: 9px, 9px; stroke-width: 2px; opacity: 1;"/></g><g class="points"/><g class="text"/></g><g class="trace scatter trace183689" style="stroke-miterlimit: 2;"><g class="fills"><g><path class="js-fill" d="M0,210.49Q2.89,207.23 4.39,205.74C5.83,204.31 7.31,203 8.79,201.71C10.24,200.45 11.7,199.24 13.18,198.06C14.64,196.9 16.11,195.77 17.58,194.67C19.04,193.58 20.5,192.53 21.97,191.48C23.43,190.44 24.89,189.42 26.36,188.42C27.82,187.42 29.29,186.45 30.76,185.49C32.22,184.53 33.68,183.58 35.15,182.65C36.61,181.72 38.08,180.8 39.55,179.89C41.01,178.98 42.47,178.08 43.94,177.19C45.4,176.3 46.86,175.43 48.33,174.56C49.79,173.69 51.26,172.83 52.73,171.97C54.19,171.12 55.65,170.27 57.12,169.43C58.58,168.59 60.05,167.76 61.52,166.93C62.98,166.11 64.45,165.29 65.91,164.48C67.37,163.67 68.83,162.86 70.3,162.06C71.76,161.26 73.23,160.47 74.7,159.68C76.16,158.89 77.63,158.1 79.09,157.32C80.55,156.54 82.01,155.76 83.48,154.99C84.94,154.22 86.41,153.45 87.88,152.69C89.34,151.93 90.8,151.17 92.27,150.42C93.73,149.67 95.2,148.92 96.67,148.17C98.13,147.42 99.6,146.68 101.06,145.94C102.52,145.2 103.98,144.46 105.45,143.72C106.91,142.98 108.38,142.25 109.85,141.52C111.31,140.79 112.78,140.07 114.24,139.34C115.71,138.61 117.17,137.88 118.64,137.16C120.1,136.44 121.57,135.72 123.03,135.01C124.49,134.3 125.96,133.59 127.42,132.88C128.89,132.17 130.35,131.47 131.82,130.76C133.28,130.06 134.75,129.35 136.21,128.65C137.68,127.95 139.14,127.25 140.61,126.56C142.07,125.87 143.54,125.18 145,124.49C146.46,123.8 147.93,123.11 149.39,122.43C150.86,121.75 152.32,121.07 153.79,120.39C155.25,119.71 156.72,119.04 158.18,118.37C159.65,117.7 161.11,117.04 162.58,116.37C164.04,115.71 165.51,115.04 166.97,114.38C168.43,113.72 169.9,113.06 171.36,112.4C172.83,111.74 174.29,111.09 175.76,110.43C177.22,109.78 178.69,109.12 180.15,108.47C181.62,107.82 183.08,107.18 184.55,106.53C186.01,105.89 187.48,105.24 188.94,104.6C190.4,103.96 191.87,103.32 193.33,102.68C194.8,102.04 196.26,101.4 197.73,100.77C199.19,100.14 200.66,99.51 202.12,98.88C203.59,98.25 205.05,97.63 206.52,97C207.98,96.38 209.45,95.75 210.91,95.13C212.37,94.51 213.84,93.9 215.3,93.28C216.77,92.66 218.23,92.04 219.7,91.43C221.16,90.82 222.63,90.21 224.09,89.6C225.55,88.99 227.02,88.39 228.48,87.78C229.95,87.17 231.41,86.56 232.88,85.96C234.34,85.36 235.81,84.76 237.27,84.16C238.74,83.56 240.2,82.96 241.67,82.37C243.13,81.78 244.6,81.19 246.06,80.6C247.52,80.01 248.99,79.41 250.45,78.82C251.92,78.23 253.38,77.65 254.85,77.06C256.31,76.48 257.78,75.89 259.24,75.31C260.71,74.73 262.17,74.14 263.64,73.56C265.1,72.98 266.57,72.41 268.03,71.83C269.49,71.25 270.95,70.67 272.42,70.1C273.88,69.53 275.35,68.97 276.82,68.4C278.28,67.83 279.75,67.26 281.21,66.69C282.68,66.12 284.14,65.56 285.61,65C287.07,64.44 288.54,63.88 290,63.32C291.46,62.76 292.93,62.21 294.39,61.65C295.86,61.09 297.32,60.54 298.79,59.98C300.25,59.42 301.72,58.86 303.18,58.31C304.65,57.75 306.11,57.2 307.58,56.65C309.04,56.1 310.51,55.55 311.97,55C313.43,54.45 314.9,53.9 316.36,53.35C317.83,52.8 319.29,52.26 320.76,51.71C322.22,51.16 323.69,50.61 325.15,50.07C326.62,49.53 328.08,48.99 329.55,48.45C331.01,47.91 332.48,47.36 333.94,46.82C335.4,46.28 336.87,45.74 338.33,45.21C339.8,44.67 341.26,44.14 342.73,43.61C344.19,43.08 345.66,42.55 347.12,42.02C348.59,41.49 350.05,40.97 351.52,40.44C352.98,39.92 354.45,39.39 355.91,38.87C357.37,38.35 358.84,37.83 360.3,37.31C361.77,36.79 363.23,36.28 364.7,35.76C366.16,35.25 367.63,34.73 369.09,34.22C370.55,33.71 372.02,33.2 373.48,32.69C374.95,32.18 376.41,31.68 377.88,31.17C379.34,30.67 380.81,30.16 382.27,29.66C383.74,29.15 385.2,28.65 386.67,28.14C388.13,27.64 389.6,27.13 391.06,26.63C392.52,26.13 393.99,25.62 395.45,25.12C396.92,24.62 398.38,24.11 399.85,23.61C401.31,23.11 402.78,22.61 404.24,22.11C405.71,21.61 407.17,21.11 408.64,20.61C410.1,20.11 411.57,19.61 413.03,19.11C414.49,18.61 415.96,18.11 417.42,17.62C418.89,17.12 420.35,16.63 421.82,16.14C423.28,15.65 424.75,15.15 426.21,14.66C427.68,14.17 429.14,13.67 430.61,13.18Q432.07,12.69 435,11.7L435,11.7Q432.07,12.69 430.61,13.18C429.14,13.67 427.68,14.17 426.21,14.66C424.75,15.15 423.28,15.65 421.82,16.14C420.35,16.63 418.89,17.12 417.42,17.62C415.96,18.11 414.49,18.61 413.03,19.11C411.57,19.61 410.1,20.11 408.64,20.61C407.17,21.11 405.71,21.61 404.24,22.11C402.78,22.61 401.31,23.11 399.85,23.61C398.38,24.11 396.92,24.62 395.45,25.12C393.99,25.62 392.52,26.13 391.06,26.63C389.6,27.13 388.13,27.64 386.67,28.14C385.2,28.65 383.74,29.15 382.27,29.66C380.81,30.16 379.34,30.67 377.88,31.17C376.41,31.68 374.95,32.18 373.48,32.69C372.02,33.2 370.55,33.71 369.09,34.22C367.63,34.73 366.16,35.25 364.7,35.76C363.23,36.28 361.77,36.79 360.3,37.31C358.84,37.83 357.37,38.35 355.91,38.87C354.45,39.39 352.98,39.92 351.52,40.44C350.05,40.97 348.59,41.49 347.12,42.02C345.66,42.55 344.19,43.08 342.73,43.61C341.26,44.14 339.8,44.67 338.33,45.21C336.87,45.74 335.4,46.28 333.94,46.82C332.48,47.36 331.01,47.91 329.55,48.45C328.08,48.99 326.62,49.53 325.15,50.07C323.69,50.61 322.22,51.16 320.76,51.71C319.29,52.26 317.83,52.8 316.36,53.35C314.9,53.9 313.43,54.45 311.97,55C310.51,55.55 309.04,56.1 307.58,56.65C306.11,57.2 304.65,57.75 303.18,58.31C301.72,58.86 300.25,59.42 298.79,59.98C297.32,60.54 295.86,61.09 294.39,61.65C292.93,62.21 291.46,62.76 290,63.32C288.54,63.88 287.07,64.44 285.61,65C284.14,65.56 282.68,66.12 281.21,66.69C279.75,67.26 278.28,67.83 276.82,68.4C275.35,68.97 273.88,69.53 272.42,70.1C270.95,70.67 269.49,71.25 268.03,71.83C266.57,72.41 265.1,72.98 263.64,73.56C262.17,74.14 260.71,74.73 259.24,75.31C257.78,75.89 256.31,76.48 254.85,77.06C253.38,77.65 251.92,78.23 250.45,78.82C248.99,79.41 247.52,80.01 246.06,80.6C244.6,81.19 243.13,81.78 241.67,82.37C240.2,82.96 238.74,83.56 237.27,84.16C235.81,84.76 234.34,85.36 232.88,85.96C231.41,86.56 229.95,87.17 228.48,87.78C227.02,88.39 225.55,88.99 224.09,89.6C222.63,90.21 221.16,90.82 219.7,91.43C218.23,92.04 216.77,92.66 215.3,93.28C213.84,93.9 212.37,94.51 210.91,95.13C209.45,95.75 207.98,96.38 206.52,97C205.05,97.63 203.59,98.25 202.12,98.88C200.66,99.51 199.19,100.14 197.73,100.77C196.26,101.4 194.8,102.04 193.33,102.68C191.87,103.32 190.4,103.96 188.94,104.6C187.48,105.24 186.01,105.89 184.55,106.53C183.08,107.18 181.62,107.82 180.15,108.47C178.69,109.12 177.22,109.78 175.76,110.43C174.29,111.09 172.83,111.74 171.36,112.4C169.9,113.06 168.43,113.72 166.97,114.38C165.51,115.04 164.04,115.71 162.58,116.37C161.11,117.04 159.65,117.7 158.18,118.37C156.72,119.04 155.25,119.71 153.79,120.39C152.32,121.07 150.86,121.75 149.39,122.43C147.93,123.11 146.46,123.8 145,124.49C143.54,125.18 142.07,125.87 140.61,126.56C139.14,127.25 137.68,127.95 136.21,128.65C134.75,129.35 133.28,130.06 131.82,130.76C130.35,131.47 128.89,132.17 127.42,132.88C125.96,133.59 124.49,134.3 123.03,135.01C121.57,135.72 120.1,136.44 118.64,137.16C117.17,137.88 115.71,138.61 114.24,139.34C112.78,140.07 111.31,140.79 109.85,141.52C108.38,142.25 106.91,142.98 105.45,143.72C103.98,144.46 102.52,145.2 101.06,145.94C99.6,146.68 98.13,147.42 96.67,148.17C95.2,148.92 93.73,149.67 92.27,150.42C90.8,151.17 89.34,151.93 87.88,152.69C86.41,153.45 84.94,154.22 83.48,154.99C82.01,155.76 80.55,156.54 79.09,157.32C77.63,158.1 76.16,158.89 74.7,159.68C73.23,160.47 71.76,161.26 70.3,162.06C68.83,162.86 67.37,163.67 65.91,164.48C64.45,165.29 62.98,166.11 61.52,166.93C60.05,167.76 58.58,168.59 57.12,169.43C55.65,170.27 54.19,171.12 52.73,171.97C51.26,172.83 49.79,173.69 48.33,174.56C46.86,175.43 45.4,176.3 43.94,177.19C42.47,178.08 41.01,178.98 39.55,179.89C38.08,180.8 36.61,181.72 35.15,182.65C33.68,183.58 32.22,184.53 30.76,185.49C29.29,186.45 27.82,187.42 26.36,188.42C24.89,189.42 23.43,190.44 21.97,191.48C20.5,192.53 19.04,193.58 17.58,194.67C16.11,195.77 14.64,196.9 13.18,198.06C11.7,199.24 10.24,200.45 8.79,201.71C7.31,203 5.83,204.31 4.39,205.74Q2.89,207.23 0,210.49Z" style="fill: rgb(102, 102, 102); fill-opacity: 0.3; stroke-width: 0;"/></g></g><g class="errorbars"/><g class="lines"><path class="js-line" d="M0,210.49Q2.89,207.23 4.39,205.74C5.83,204.31 7.31,203 8.79,201.71C10.24,200.45 11.7,199.24 13.18,198.06C14.64,196.9 16.11,195.77 17.58,194.67C19.04,193.58 20.5,192.53 21.97,191.48C23.43,190.44 24.89,189.42 26.36,188.42C27.82,187.42 29.29,186.45 30.76,185.49C32.22,184.53 33.68,183.58 35.15,182.65C36.61,181.72 38.08,180.8 39.55,179.89C41.01,178.98 42.47,178.08 43.94,177.19C45.4,176.3 46.86,175.43 48.33,174.56C49.79,173.69 51.26,172.83 52.73,171.97C54.19,171.12 55.65,170.27 57.12,169.43C58.58,168.59 60.05,167.76 61.52,166.93C62.98,166.11 64.45,165.29 65.91,164.48C67.37,163.67 68.83,162.86 70.3,162.06C71.76,161.26 73.23,160.47 74.7,159.68C76.16,158.89 77.63,158.1 79.09,157.32C80.55,156.54 82.01,155.76 83.48,154.99C84.94,154.22 86.41,153.45 87.88,152.69C89.34,151.93 90.8,151.17 92.27,150.42C93.73,149.67 95.2,148.92 96.67,148.17C98.13,147.42 99.6,146.68 101.06,145.94C102.52,145.2 103.98,144.46 105.45,143.72C106.91,142.98 108.38,142.25 109.85,141.52C111.31,140.79 112.78,140.07 114.24,139.34C115.71,138.61 117.17,137.88 118.64,137.16C120.1,136.44 121.57,135.72 123.03,135.01C124.49,134.3 125.96,133.59 127.42,132.88C128.89,132.17 130.35,131.47 131.82,130.76C133.28,130.06 134.75,129.35 136.21,128.65C137.68,127.95 139.14,127.25 140.61,126.56C142.07,125.87 143.54,125.18 145,124.49C146.46,123.8 147.93,123.11 149.39,122.43C150.86,121.75 152.32,121.07 153.79,120.39C155.25,119.71 156.72,119.04 158.18,118.37C159.65,117.7 161.11,117.04 162.58,116.37C164.04,115.71 165.51,115.04 166.97,114.38C168.43,113.72 169.9,113.06 171.36,112.4C172.83,111.74 174.29,111.09 175.76,110.43C177.22,109.78 178.69,109.12 180.15,108.47C181.62,107.82 183.08,107.18 184.55,106.53C186.01,105.89 187.48,105.24 188.94,104.6C190.4,103.96 191.87,103.32 193.33,102.68C194.8,102.04 196.26,101.4 197.73,100.77C199.19,100.14 200.66,99.51 202.12,98.88C203.59,98.25 205.05,97.63 206.52,97C207.98,96.38 209.45,95.75 210.91,95.13C212.37,94.51 213.84,93.9 215.3,93.28C216.77,92.66 218.23,92.04 219.7,91.43C221.16,90.82 222.63,90.21 224.09,89.6C225.55,88.99 227.02,88.39 228.48,87.78C229.95,87.17 231.41,86.56 232.88,85.96C234.34,85.36 235.81,84.76 237.27,84.16C238.74,83.56 240.2,82.96 241.67,82.37C243.13,81.78 244.6,81.19 246.06,80.6C247.52,80.01 248.99,79.41 250.45,78.82C251.92,78.23 253.38,77.65 254.85,77.06C256.31,76.48 257.78,75.89 259.24,75.31C260.71,74.73 262.17,74.14 263.64,73.56C265.1,72.98 266.57,72.41 268.03,71.83C269.49,71.25 270.95,70.67 272.42,70.1C273.88,69.53 275.35,68.97 276.82,68.4C278.28,67.83 279.75,67.26 281.21,66.69C282.68,66.12 284.14,65.56 285.61,65C287.07,64.44 288.54,63.88 290,63.32C291.46,62.76 292.93,62.21 294.39,61.65C295.86,61.09 297.32,60.54 298.79,59.98C300.25,59.42 301.72,58.86 303.18,58.31C304.65,57.75 306.11,57.2 307.58,56.65C309.04,56.1 310.51,55.55 311.97,55C313.43,54.45 314.9,53.9 316.36,53.35C317.83,52.8 319.29,52.26 320.76,51.71C322.22,51.16 323.69,50.61 325.15,50.07C326.62,49.53 328.08,48.99 329.55,48.45C331.01,47.91 332.48,47.36 333.94,46.82C335.4,46.28 336.87,45.74 338.33,45.21C339.8,44.67 341.26,44.14 342.73,43.61C344.19,43.08 345.66,42.55 347.12,42.02C348.59,41.49 350.05,40.97 351.52,40.44C352.98,39.92 354.45,39.39 355.91,38.87C357.37,38.35 358.84,37.83 360.3,37.31C361.77,36.79 363.23,36.28 364.7,35.76C366.16,35.25 367.63,34.73 369.09,34.22C370.55,33.71 372.02,33.2 373.48,32.69C374.95,32.18 376.41,31.68 377.88,31.17C379.34,30.67 380.81,30.16 382.27,29.66C383.74,29.15 385.2,28.65 386.67,28.14C388.13,27.64 389.6,27.13 391.06,26.63C392.52,26.13 393.99,25.62 395.45,25.12C396.92,24.62 398.38,24.11 399.85,23.61C401.31,23.11 402.78,22.61 404.24,22.11C405.71,21.61 407.17,21.11 408.64,20.61C410.1,20.11 411.57,19.61 413.03,19.11C414.49,18.61 415.96,18.11 417.42,17.62C418.89,17.12 420.35,16.63 421.82,16.14C423.28,15.65 424.75,15.15 426.21,14.66C427.68,14.17 429.14,13.67 430.61,13.18Q432.07,12.69 435,11.7" style="vector-effect: none; fill: none; stroke: rgb(255, 161, 90); stroke-opacity: 1; stroke-width: 0px; opacity: 1;"/></g><g class="points"/><g class="text"/></g><g class="trace scatter tracee22c3b" style="stroke-miterlimit: 2;"><g class="fills"/><g class="errorbars"/><g class="lines"><path class="js-line" d="M0,210.49Q2.89,207.23 4.39,205.74C5.83,204.31 7.31,203 8.79,201.71C10.24,200.45 11.7,199.24 13.18,198.06C14.64,196.9 16.11,195.77 17.58,194.67C19.04,193.58 20.5,192.53 21.97,191.48C23.43,190.44 24.89,189.42 26.36,188.42C27.82,187.42 29.29,186.45 30.76,185.49C32.22,184.53 33.68,183.58 35.15,182.65C36.61,181.72 38.08,180.8 39.55,179.89C41.01,178.98 42.47,178.08 43.94,177.19C45.4,176.3 46.86,175.43 48.33,174.56C49.79,173.69 51.26,172.83 52.73,171.97C54.19,171.12 55.65,170.27 57.12,169.43C58.58,168.59 60.05,167.76 61.52,166.93C62.98,166.11 64.45,165.29 65.91,164.48C67.37,163.67 68.83,162.86 70.3,162.06C71.76,161.26 73.23,160.47 74.7,159.68C76.16,158.89 77.63,158.1 79.09,157.32C80.55,156.54 82.01,155.76 83.48,154.99C84.94,154.22 86.41,153.45 87.88,152.69C89.34,151.93 90.8,151.17 92.27,150.42C93.73,149.67 95.2,148.92 96.67,148.17C98.13,147.42 99.6,146.68 101.06,145.94C102.52,145.2 103.98,144.46 105.45,143.72C106.91,142.98 108.38,142.25 109.85,141.52C111.31,140.79 112.78,140.07 114.24,139.34C115.71,138.61 117.17,137.88 118.64,137.16C120.1,136.44 121.57,135.72 123.03,135.01C124.49,134.3 125.96,133.59 127.42,132.88C128.89,132.17 130.35,131.47 131.82,130.76C133.28,130.06 134.75,129.35 136.21,128.65C137.68,127.95 139.14,127.25 140.61,126.56C142.07,125.87 143.54,125.18 145,124.49C146.46,123.8 147.93,123.11 149.39,122.43C150.86,121.75 152.32,121.07 153.79,120.39C155.25,119.71 156.72,119.04 158.18,118.37C159.65,117.7 161.11,117.04 162.58,116.37C164.04,115.71 165.51,115.04 166.97,114.38C168.43,113.72 169.9,113.06 171.36,112.4C172.83,111.74 174.29,111.09 175.76,110.43C177.22,109.78 178.69,109.12 180.15,108.47C181.62,107.82 183.08,107.18 184.55,106.53C186.01,105.89 187.48,105.24 188.94,104.6C190.4,103.96 191.87,103.32 193.33,102.68C194.8,102.04 196.26,101.4 197.73,100.77C199.19,100.14 200.66,99.51 202.12,98.88C203.59,98.25 205.05,97.63 206.52,97C207.98,96.38 209.45,95.75 210.91,95.13C212.37,94.51 213.84,93.9 215.3,93.28C216.77,92.66 218.23,92.04 219.7,91.43C221.16,90.82 222.63,90.21 224.09,89.6C225.55,88.99 227.02,88.39 228.48,87.78C229.95,87.17 231.41,86.56 232.88,85.96C234.34,85.36 235.81,84.76 237.27,84.16C238.74,83.56 240.2,82.96 241.67,82.37C243.13,81.78 244.6,81.19 246.06,80.6C247.52,80.01 248.99,79.41 250.45,78.82C251.92,78.23 253.38,77.65 254.85,77.06C256.31,76.48 257.78,75.89 259.24,75.31C260.71,74.73 262.17,74.14 263.64,73.56C265.1,72.98 266.57,72.41 268.03,71.83C269.49,71.25 270.95,70.67 272.42,70.1C273.88,69.53 275.35,68.97 276.82,68.4C278.28,67.83 279.75,67.26 281.21,66.69C282.68,66.12 284.14,65.56 285.61,65C287.07,64.44 288.54,63.88 290,63.32C291.46,62.76 292.93,62.21 294.39,61.65C295.86,61.09 297.32,60.54 298.79,59.98C300.25,59.42 301.72,58.86 303.18,58.31C304.65,57.75 306.11,57.2 307.58,56.65C309.04,56.1 310.51,55.55 311.97,55C313.43,54.45 314.9,53.9 316.36,53.35C317.83,52.8 319.29,52.26 320.76,51.71C322.22,51.16 323.69,50.61 325.15,50.07C326.62,49.53 328.08,48.99 329.55,48.45C331.01,47.91 332.48,47.36 333.94,46.82C335.4,46.28 336.87,45.74 338.33,45.21C339.8,44.67 341.26,44.14 342.73,43.61C344.19,43.08 345.66,42.55 347.12,42.02C348.59,41.49 350.05,40.97 351.52,40.44C352.98,39.92 354.45,39.39 355.91,38.87C357.37,38.35 358.84,37.83 360.3,37.31C361.77,36.79 363.23,36.28 364.7,35.76C366.16,35.25 367.63,34.73 369.09,34.22C370.55,33.71 372.02,33.2 373.48,32.69C374.95,32.18 376.41,31.68 377.88,31.17C379.34,30.67 380.81,30.16 382.27,29.66C383.74,29.15 385.2,28.65 386.67,28.14C388.13,27.64 389.6,27.13 391.06,26.63C392.52,26.13 393.99,25.62 395.45,25.12C396.92,24.62 398.38,24.11 399.85,23.61C401.31,23.11 402.78,22.61 404.24,22.11C405.71,21.61 407.17,21.11 408.64,20.61C410.1,20.11 411.57,19.61 413.03,19.11C414.49,18.61 415.96,18.11 417.42,17.62C418.89,17.12 420.35,16.63 421.82,16.14C423.28,15.65 424.75,15.15 426.21,14.66C427.68,14.17 429.14,13.67 430.61,13.18Q432.07,12.69 435,11.7" style="vector-effect: none; fill: none; stroke: rgb(25, 211, 243); stroke-opacity: 1; stroke-width: 0px; opacity: 1;"/></g><g class="points"/><g class="text"/></g><g class="trace scatter trace5689a7" style="stroke-miterlimit: 2; opacity: 1;"><g class="fills"/><g class="errorbars"/><g class="lines"><path class="js-line" d="M0,222.3Q2.73,216.61 4.32,214.41C5.66,212.57 7.16,211.19 8.65,209.79C10.05,208.47 11.51,207.32 12.97,206.2C14.39,205.11 15.84,204.12 17.3,203.16C18.73,202.22 20.17,201.34 21.62,200.49C23.05,199.65 24.5,198.85 25.95,198.08C27.38,197.32 28.82,196.6 30.27,195.89C31.7,195.19 33.14,194.52 34.59,193.86C36.03,193.21 37.47,192.58 38.92,191.96C40.36,191.35 41.8,190.75 43.24,190.16C44.68,189.58 46.13,189.01 47.57,188.45C49.01,187.89 50.45,187.34 51.89,186.8C53.33,186.26 54.78,185.74 56.22,185.23C57.66,184.72 59.1,184.23 60.54,183.74C61.98,183.25 63.42,182.77 64.86,182.3C66.3,181.83 67.75,181.37 69.19,180.92C70.63,180.47 72.07,180.03 73.51,179.6C74.95,179.17 76.4,178.75 77.84,178.33C79.28,177.92 80.72,177.51 82.16,177.11C83.6,176.71 85.05,176.32 86.49,175.93C87.93,175.54 89.37,175.16 90.81,174.78C92.25,174.4 93.69,174.03 95.13,173.67C96.57,173.3 98.02,172.95 99.46,172.59C100.9,172.23 102.34,171.88 103.78,171.53C105.22,171.18 106.67,170.85 108.11,170.51C109.55,170.17 110.99,169.83 112.43,169.5C113.87,169.17 115.32,168.84 116.76,168.51C118.2,168.18 119.64,167.86 121.08,167.54C122.52,167.22 123.96,166.9 125.4,166.58C126.84,166.26 128.29,165.95 129.73,165.64C131.17,165.33 132.61,165.03 134.05,164.73C135.49,164.43 136.94,164.14 138.38,163.84C139.82,163.54 141.26,163.24 142.7,162.95C144.14,162.66 145.58,162.37 147.02,162.08C148.46,161.79 149.91,161.51 151.35,161.22C152.79,160.94 154.23,160.65 155.67,160.37C157.11,160.09 158.56,159.82 160,159.54C161.44,159.26 162.88,158.98 164.32,158.7C165.76,158.42 167.21,158.15 168.65,157.88C170.09,157.61 171.53,157.34 172.97,157.07C174.41,156.8 175.85,156.54 177.29,156.27C178.73,156 180.18,155.73 181.62,155.47C183.06,155.21 184.5,154.96 185.94,154.71C187.38,154.46 188.83,154.2 190.27,153.95C191.71,153.7 193.15,153.45 194.59,153.2C196.03,152.95 197.48,152.71 198.92,152.47C200.36,152.23 201.8,151.98 203.24,151.74C204.68,151.5 206.12,151.26 207.56,151.02C209,150.78 210.45,150.54 211.89,150.3C213.33,150.06 214.77,149.83 216.21,149.6C217.65,149.37 219.1,149.13 220.54,148.9C221.98,148.67 223.42,148.44 224.86,148.21C226.3,147.98 227.75,147.77 229.19,147.54C230.63,147.32 232.07,147.09 233.51,146.86C234.95,146.64 236.39,146.41 237.83,146.19C239.27,145.97 240.72,145.74 242.16,145.52C243.6,145.3 245.04,145.08 246.48,144.86C247.92,144.64 249.37,144.43 250.81,144.21C252.25,143.99 253.69,143.77 255.13,143.56C256.57,143.35 258.02,143.14 259.46,142.93C260.9,142.72 262.34,142.52 263.78,142.31C265.22,142.1 266.66,141.89 268.1,141.68C269.54,141.47 270.99,141.27 272.43,141.06C273.87,140.85 275.31,140.64 276.75,140.44C278.19,140.23 279.64,140.03 281.08,139.83C282.52,139.63 283.96,139.42 285.4,139.22C286.84,139.01 288.29,138.81 289.73,138.6C291.17,138.4 292.61,138.19 294.05,137.99C295.49,137.79 296.93,137.58 298.37,137.38C299.81,137.18 301.26,136.98 302.7,136.77C304.14,136.57 305.58,136.35 307.02,136.15C308.46,135.95 309.91,135.75 311.35,135.55C312.79,135.35 314.23,135.14 315.67,134.94C317.11,134.74 318.56,134.53 320,134.33C321.44,134.13 322.88,133.92 324.32,133.72C325.76,133.52 327.2,133.31 328.64,133.11C330.08,132.91 331.53,132.7 332.97,132.5C334.41,132.3 335.85,132.09 337.29,131.89C338.73,131.69 340.18,131.49 341.62,131.29C343.06,131.09 344.5,130.89 345.94,130.69C347.38,130.49 348.83,130.29 350.27,130.09C351.71,129.89 353.15,129.7 354.59,129.5C356.03,129.31 357.47,129.11 358.91,128.92C360.35,128.73 361.8,128.53 363.24,128.34C364.68,128.15 366.12,127.95 367.56,127.76C369,127.57 370.45,127.38 371.89,127.19C373.33,127 374.77,126.79 376.21,126.6C377.65,126.4 379.1,126.21 380.54,126.02C381.98,125.83 383.42,125.63 384.86,125.44C386.3,125.25 387.74,125.05 389.18,124.86C390.62,124.67 392.07,124.47 393.51,124.28C394.95,124.09 396.39,123.9 397.83,123.71C399.27,123.52 400.72,123.33 402.16,123.14C403.6,122.95 405.04,122.75 406.48,122.56C407.92,122.37 409.36,122.17 410.8,121.98C412.24,121.79 413.69,121.59 415.13,121.4C416.57,121.21 418.01,121.02 419.45,120.83C420.89,120.64 422.34,120.44 423.78,120.25Q425.22,120.06 428.1,119.67" style="vector-effect: none; fill: none; stroke: rgb(95, 70, 144); stroke-opacity: 1; stroke-width: 2px; opacity: 1;"/></g><g class="points"/><g class="text"/></g><g class="trace scatter tracea90843" style="stroke-miterlimit: 2;"><g class="fills"><g><path class="js-fill" d="M0,222.3Q2.73,216.61 4.32,214.41C5.66,212.57 7.16,211.19 8.65,209.79C10.05,208.47 11.51,207.32 12.97,206.2C14.39,205.11 15.84,204.12 17.3,203.16C18.73,202.22 20.17,201.34 21.62,200.49C23.05,199.65 24.5,198.85 25.95,198.08C27.38,197.32 28.82,196.6 30.27,195.89C31.7,195.19 33.14,194.52 34.59,193.86C36.03,193.21 37.47,192.58 38.92,191.96C40.36,191.35 41.8,190.75 43.24,190.16C44.68,189.58 46.13,189.01 47.57,188.45C49.01,187.89 50.45,187.34 51.89,186.8C53.33,186.26 54.78,185.74 56.22,185.23C57.66,184.72 59.1,184.23 60.54,183.74C61.98,183.25 63.42,182.77 64.86,182.3C66.3,181.83 67.75,181.37 69.19,180.92C70.63,180.47 72.07,180.03 73.51,179.6C74.95,179.17 76.4,178.75 77.84,178.33C79.28,177.92 80.72,177.51 82.16,177.11C83.6,176.71 85.05,176.32 86.49,175.93C87.93,175.54 89.37,175.16 90.81,174.78C92.25,174.4 93.69,174.03 95.13,173.67C96.57,173.3 98.02,172.95 99.46,172.59C100.9,172.23 102.34,171.88 103.78,171.53C105.22,171.18 106.67,170.85 108.11,170.51C109.55,170.17 110.99,169.83 112.43,169.5C113.87,169.17 115.32,168.84 116.76,168.51C118.2,168.18 119.64,167.86 121.08,167.54C122.52,167.22 123.96,166.9 125.4,166.58C126.84,166.26 128.29,165.95 129.73,165.64C131.17,165.33 132.61,165.03 134.05,164.73C135.49,164.43 136.94,164.14 138.38,163.84C139.82,163.54 141.26,163.24 142.7,162.95C144.14,162.66 145.58,162.37 147.02,162.08C148.46,161.79 149.91,161.51 151.35,161.22C152.79,160.94 154.23,160.65 155.67,160.37C157.11,160.09 158.56,159.82 160,159.54C161.44,159.26 162.88,158.98 164.32,158.7C165.76,158.42 167.21,158.15 168.65,157.88C170.09,157.61 171.53,157.34 172.97,157.07C174.41,156.8 175.85,156.54 177.29,156.27C178.73,156 180.18,155.73 181.62,155.47C183.06,155.21 184.5,154.96 185.94,154.71C187.38,154.46 188.83,154.2 190.27,153.95C191.71,153.7 193.15,153.45 194.59,153.2C196.03,152.95 197.48,152.71 198.92,152.47C200.36,152.23 201.8,151.98 203.24,151.74C204.68,151.5 206.12,151.26 207.56,151.02C209,150.78 210.45,150.54 211.89,150.3C213.33,150.06 214.77,149.83 216.21,149.6C217.65,149.37 219.1,149.13 220.54,148.9C221.98,148.67 223.42,148.44 224.86,148.21C226.3,147.98 227.75,147.77 229.19,147.54C230.63,147.32 232.07,147.09 233.51,146.86C234.95,146.64 236.39,146.41 237.83,146.19C239.27,145.97 240.72,145.74 242.16,145.52C243.6,145.3 245.04,145.08 246.48,144.86C247.92,144.64 249.37,144.43 250.81,144.21C252.25,143.99 253.69,143.77 255.13,143.56C256.57,143.35 258.02,143.14 259.46,142.93C260.9,142.72 262.34,142.52 263.78,142.31C265.22,142.1 266.66,141.89 268.1,141.68C269.54,141.47 270.99,141.27 272.43,141.06C273.87,140.85 275.31,140.64 276.75,140.44C278.19,140.23 279.64,140.03 281.08,139.83C282.52,139.63 283.96,139.42 285.4,139.22C286.84,139.01 288.29,138.81 289.73,138.6C291.17,138.4 292.61,138.19 294.05,137.99C295.49,137.79 296.93,137.58 298.37,137.38C299.81,137.18 301.26,136.98 302.7,136.77C304.14,136.57 305.58,136.35 307.02,136.15C308.46,135.95 309.91,135.75 311.35,135.55C312.79,135.35 314.23,135.14 315.67,134.94C317.11,134.74 318.56,134.53 320,134.33C321.44,134.13 322.88,133.92 324.32,133.72C325.76,133.52 327.2,133.31 328.64,133.11C330.08,132.91 331.53,132.7 332.97,132.5C334.41,132.3 335.85,132.09 337.29,131.89C338.73,131.69 340.18,131.49 341.62,131.29C343.06,131.09 344.5,130.89 345.94,130.69C347.38,130.49 348.83,130.29 350.27,130.09C351.71,129.89 353.15,129.7 354.59,129.5C356.03,129.31 357.47,129.11 358.91,128.92C360.35,128.73 361.8,128.53 363.24,128.34C364.68,128.15 366.12,127.95 367.56,127.76C369,127.57 370.45,127.38 371.89,127.19C373.33,127 374.77,126.79 376.21,126.6C377.65,126.4 379.1,126.21 380.54,126.02C381.98,125.83 383.42,125.63 384.86,125.44C386.3,125.25 387.74,125.05 389.18,124.86C390.62,124.67 392.07,124.47 393.51,124.28C394.95,124.09 396.39,123.9 397.83,123.71C399.27,123.52 400.72,123.33 402.16,123.14C403.6,122.95 405.04,122.75 406.48,122.56C407.92,122.37 409.36,122.17 410.8,121.98C412.24,121.79 413.69,121.59 415.13,121.4C416.57,121.21 418.01,121.02 419.45,120.83C420.89,120.64 422.34,120.44 423.78,120.25Q425.22,120.06 428.1,119.67L428.1,119.67Q425.22,120.06 423.78,120.25C422.34,120.44 420.89,120.64 419.45,120.83C418.01,121.02 416.57,121.21 415.13,121.4C413.69,121.59 412.24,121.79 410.8,121.98C409.36,122.17 407.92,122.37 406.48,122.56C405.04,122.75 403.6,122.95 402.16,123.14C400.72,123.33 399.27,123.52 397.83,123.71C396.39,123.9 394.95,124.09 393.51,124.28C392.07,124.47 390.62,124.67 389.18,124.86C387.74,125.05 386.3,125.25 384.86,125.44C383.42,125.63 381.98,125.83 380.54,126.02C379.1,126.21 377.65,126.4 376.21,126.6C374.77,126.79 373.33,127 371.89,127.19C370.45,127.38 369,127.57 367.56,127.76C366.12,127.95 364.68,128.15 363.24,128.34C361.8,128.53 360.35,128.73 358.91,128.92C357.47,129.11 356.03,129.31 354.59,129.5C353.15,129.7 351.71,129.89 350.27,130.09C348.83,130.29 347.38,130.49 345.94,130.69C344.5,130.89 343.06,131.09 341.62,131.29C340.18,131.49 338.73,131.69 337.29,131.89C335.85,132.09 334.41,132.3 332.97,132.5C331.53,132.7 330.08,132.91 328.64,133.11C327.2,133.31 325.76,133.52 324.32,133.72C322.88,133.92 321.44,134.13 320,134.33C318.56,134.53 317.11,134.74 315.67,134.94C314.23,135.14 312.79,135.35 311.35,135.55C309.91,135.75 308.46,135.95 307.02,136.15C305.58,136.35 304.14,136.57 302.7,136.77C301.26,136.98 299.81,137.18 298.37,137.38C296.93,137.58 295.49,137.79 294.05,137.99C292.61,138.19 291.17,138.4 289.73,138.6C288.29,138.81 286.84,139.01 285.4,139.22C283.96,139.42 282.52,139.63 281.08,139.83C279.64,140.03 278.19,140.23 276.75,140.44C275.31,140.64 273.87,140.85 272.43,141.06C270.99,141.27 269.54,141.47 268.1,141.68C266.66,141.89 265.22,142.1 263.78,142.31C262.34,142.52 260.9,142.72 259.46,142.93C258.02,143.14 256.57,143.35 255.13,143.56C253.69,143.77 252.25,143.99 250.81,144.21C249.37,144.43 247.92,144.64 246.48,144.86C245.04,145.08 243.6,145.3 242.16,145.52C240.72,145.74 239.27,145.97 237.83,146.19C236.39,146.41 234.95,146.64 233.51,146.86C232.07,147.09 230.63,147.32 229.19,147.54C227.75,147.77 226.3,147.98 224.86,148.21C223.42,148.44 221.98,148.67 220.54,148.9C219.1,149.13 217.65,149.37 216.21,149.6C214.77,149.83 213.33,150.06 211.89,150.3C210.45,150.54 209,150.78 207.56,151.02C206.12,151.26 204.68,151.5 203.24,151.74C201.8,151.98 200.36,152.23 198.92,152.47C197.48,152.71 196.03,152.95 194.59,153.2C193.15,153.45 191.71,153.7 190.27,153.95C188.83,154.2 187.38,154.46 185.94,154.71C184.5,154.96 183.06,155.21 181.62,155.47C180.18,155.73 178.73,156 177.29,156.27C175.85,156.54 174.41,156.8 172.97,157.07C171.53,157.34 170.09,157.61 168.65,157.88C167.21,158.15 165.76,158.42 164.32,158.7C162.88,158.98 161.44,159.26 160,159.54C158.56,159.82 157.11,160.09 155.67,160.37C154.23,160.65 152.79,160.94 151.35,161.22C149.91,161.51 148.46,161.79 147.02,162.08C145.58,162.37 144.14,162.66 142.7,162.95C141.26,163.24 139.82,163.54 138.38,163.84C136.94,164.14 135.49,164.43 134.05,164.73C132.61,165.03 131.17,165.33 129.73,165.64C128.29,165.95 126.84,166.26 125.4,166.58C123.96,166.9 122.52,167.22 121.08,167.54C119.64,167.86 118.2,168.18 116.76,168.51C115.32,168.84 113.87,169.17 112.43,169.5C110.99,169.83 109.55,170.17 108.11,170.51C106.67,170.85 105.22,171.18 103.78,171.53C102.34,171.88 100.9,172.23 99.46,172.59C98.02,172.95 96.57,173.3 95.13,173.67C93.69,174.03 92.25,174.4 90.81,174.78C89.37,175.16 87.93,175.54 86.49,175.93C85.05,176.32 83.6,176.71 82.16,177.11C80.72,177.51 79.28,177.92 77.84,178.33C76.4,178.75 74.95,179.17 73.51,179.6C72.07,180.03 70.63,180.47 69.19,180.92C67.75,181.37 66.3,181.83 64.86,182.3C63.42,182.77 61.98,183.25 60.54,183.74C59.1,184.23 57.66,184.72 56.22,185.23C54.78,185.74 53.33,186.26 51.89,186.8C50.45,187.34 49.01,187.89 47.57,188.45C46.13,189.01 44.68,189.58 43.24,190.16C41.8,190.75 40.36,191.35 38.92,191.96C37.47,192.58 36.03,193.21 34.59,193.86C33.14,194.52 31.7,195.19 30.27,195.89C28.82,196.6 27.38,197.32 25.95,198.08C24.5,198.85 23.05,199.65 21.62,200.49C20.17,201.34 18.73,202.22 17.3,203.16C15.84,204.12 14.39,205.11 12.97,206.2C11.51,207.32 10.05,208.47 8.65,209.79C7.16,211.19 5.66,212.57 4.32,214.41Q2.73,216.61 0,222.3Z" style="fill: rgb(95, 70, 144); fill-opacity: 0.3; stroke-width: 0;"/></g></g><g class="errorbars"/><g class="lines"><path class="js-line" d="M0,222.3Q2.73,216.61 4.32,214.41C5.66,212.57 7.16,211.19 8.65,209.79C10.05,208.47 11.51,207.32 12.97,206.2C14.39,205.11 15.84,204.12 17.3,203.16C18.73,202.22 20.17,201.34 21.62,200.49C23.05,199.65 24.5,198.85 25.95,198.08C27.38,197.32 28.82,196.6 30.27,195.89C31.7,195.19 33.14,194.52 34.59,193.86C36.03,193.21 37.47,192.58 38.92,191.96C40.36,191.35 41.8,190.75 43.24,190.16C44.68,189.58 46.13,189.01 47.57,188.45C49.01,187.89 50.45,187.34 51.89,186.8C53.33,186.26 54.78,185.74 56.22,185.23C57.66,184.72 59.1,184.23 60.54,183.74C61.98,183.25 63.42,182.77 64.86,182.3C66.3,181.83 67.75,181.37 69.19,180.92C70.63,180.47 72.07,180.03 73.51,179.6C74.95,179.17 76.4,178.75 77.84,178.33C79.28,177.92 80.72,177.51 82.16,177.11C83.6,176.71 85.05,176.32 86.49,175.93C87.93,175.54 89.37,175.16 90.81,174.78C92.25,174.4 93.69,174.03 95.13,173.67C96.57,173.3 98.02,172.95 99.46,172.59C100.9,172.23 102.34,171.88 103.78,171.53C105.22,171.18 106.67,170.85 108.11,170.51C109.55,170.17 110.99,169.83 112.43,169.5C113.87,169.17 115.32,168.84 116.76,168.51C118.2,168.18 119.64,167.86 121.08,167.54C122.52,167.22 123.96,166.9 125.4,166.58C126.84,166.26 128.29,165.95 129.73,165.64C131.17,165.33 132.61,165.03 134.05,164.73C135.49,164.43 136.94,164.14 138.38,163.84C139.82,163.54 141.26,163.24 142.7,162.95C144.14,162.66 145.58,162.37 147.02,162.08C148.46,161.79 149.91,161.51 151.35,161.22C152.79,160.94 154.23,160.65 155.67,160.37C157.11,160.09 158.56,159.82 160,159.54C161.44,159.26 162.88,158.98 164.32,158.7C165.76,158.42 167.21,158.15 168.65,157.88C170.09,157.61 171.53,157.34 172.97,157.07C174.41,156.8 175.85,156.54 177.29,156.27C178.73,156 180.18,155.73 181.62,155.47C183.06,155.21 184.5,154.96 185.94,154.71C187.38,154.46 188.83,154.2 190.27,153.95C191.71,153.7 193.15,153.45 194.59,153.2C196.03,152.95 197.48,152.71 198.92,152.47C200.36,152.23 201.8,151.98 203.24,151.74C204.68,151.5 206.12,151.26 207.56,151.02C209,150.78 210.45,150.54 211.89,150.3C213.33,150.06 214.77,149.83 216.21,149.6C217.65,149.37 219.1,149.13 220.54,148.9C221.98,148.67 223.42,148.44 224.86,148.21C226.3,147.98 227.75,147.77 229.19,147.54C230.63,147.32 232.07,147.09 233.51,146.86C234.95,146.64 236.39,146.41 237.83,146.19C239.27,145.97 240.72,145.74 242.16,145.52C243.6,145.3 245.04,145.08 246.48,144.86C247.92,144.64 249.37,144.43 250.81,144.21C252.25,143.99 253.69,143.77 255.13,143.56C256.57,143.35 258.02,143.14 259.46,142.93C260.9,142.72 262.34,142.52 263.78,142.31C265.22,142.1 266.66,141.89 268.1,141.68C269.54,141.47 270.99,141.27 272.43,141.06C273.87,140.85 275.31,140.64 276.75,140.44C278.19,140.23 279.64,140.03 281.08,139.83C282.52,139.63 283.96,139.42 285.4,139.22C286.84,139.01 288.29,138.81 289.73,138.6C291.17,138.4 292.61,138.19 294.05,137.99C295.49,137.79 296.93,137.58 298.37,137.38C299.81,137.18 301.26,136.98 302.7,136.77C304.14,136.57 305.58,136.35 307.02,136.15C308.46,135.95 309.91,135.75 311.35,135.55C312.79,135.35 314.23,135.14 315.67,134.94C317.11,134.74 318.56,134.53 320,134.33C321.44,134.13 322.88,133.92 324.32,133.72C325.76,133.52 327.2,133.31 328.64,133.11C330.08,132.91 331.53,132.7 332.97,132.5C334.41,132.3 335.85,132.09 337.29,131.89C338.73,131.69 340.18,131.49 341.62,131.29C343.06,131.09 344.5,130.89 345.94,130.69C347.38,130.49 348.83,130.29 350.27,130.09C351.71,129.89 353.15,129.7 354.59,129.5C356.03,129.31 357.47,129.11 358.91,128.92C360.35,128.73 361.8,128.53 363.24,128.34C364.68,128.15 366.12,127.95 367.56,127.76C369,127.57 370.45,127.38 371.89,127.19C373.33,127 374.77,126.79 376.21,126.6C377.65,126.4 379.1,126.21 380.54,126.02C381.98,125.83 383.42,125.63 384.86,125.44C386.3,125.25 387.74,125.05 389.18,124.86C390.62,124.67 392.07,124.47 393.51,124.28C394.95,124.09 396.39,123.9 397.83,123.71C399.27,123.52 400.72,123.33 402.16,123.14C403.6,122.95 405.04,122.75 406.48,122.56C407.92,122.37 409.36,122.17 410.8,121.98C412.24,121.79 413.69,121.59 415.13,121.4C416.57,121.21 418.01,121.02 419.45,120.83C420.89,120.64 422.34,120.44 423.78,120.25Q425.22,120.06 428.1,119.67" style="vector-effect: none; fill: none; stroke: rgb(182, 232, 128); stroke-opacity: 1; stroke-width: 0px; opacity: 1;"/></g><g class="points"/><g class="text"/></g><g class="trace scatter traceb8a5bd" style="stroke-miterlimit: 2;"><g class="fills"/><g class="errorbars"/><g class="lines"><path class="js-line" d="M0,222.3Q2.73,216.61 4.32,214.41C5.66,212.57 7.16,211.19 8.65,209.79C10.05,208.47 11.51,207.32 12.97,206.2C14.39,205.11 15.84,204.12 17.3,203.16C18.73,202.22 20.17,201.34 21.62,200.49C23.05,199.65 24.5,198.85 25.95,198.08C27.38,197.32 28.82,196.6 30.27,195.89C31.7,195.19 33.14,194.52 34.59,193.86C36.03,193.21 37.47,192.58 38.92,191.96C40.36,191.35 41.8,190.75 43.24,190.16C44.68,189.58 46.13,189.01 47.57,188.45C49.01,187.89 50.45,187.34 51.89,186.8C53.33,186.26 54.78,185.74 56.22,185.23C57.66,184.72 59.1,184.23 60.54,183.74C61.98,183.25 63.42,182.77 64.86,182.3C66.3,181.83 67.75,181.37 69.19,180.92C70.63,180.47 72.07,180.03 73.51,179.6C74.95,179.17 76.4,178.75 77.84,178.33C79.28,177.92 80.72,177.51 82.16,177.11C83.6,176.71 85.05,176.32 86.49,175.93C87.93,175.54 89.37,175.16 90.81,174.78C92.25,174.4 93.69,174.03 95.13,173.67C96.57,173.3 98.02,172.95 99.46,172.59C100.9,172.23 102.34,171.88 103.78,171.53C105.22,171.18 106.67,170.85 108.11,170.51C109.55,170.17 110.99,169.83 112.43,169.5C113.87,169.17 115.32,168.84 116.76,168.51C118.2,168.18 119.64,167.86 121.08,167.54C122.52,167.22 123.96,166.9 125.4,166.58C126.84,166.26 128.29,165.95 129.73,165.64C131.17,165.33 132.61,165.03 134.05,164.73C135.49,164.43 136.94,164.14 138.38,163.84C139.82,163.54 141.26,163.24 142.7,162.95C144.14,162.66 145.58,162.37 147.02,162.08C148.46,161.79 149.91,161.51 151.35,161.22C152.79,160.94 154.23,160.65 155.67,160.37C157.11,160.09 158.56,159.82 160,159.54C161.44,159.26 162.88,158.98 164.32,158.7C165.76,158.42 167.21,158.15 168.65,157.88C170.09,157.61 171.53,157.34 172.97,157.07C174.41,156.8 175.85,156.54 177.29,156.27C178.73,156 180.18,155.73 181.62,155.47C183.06,155.21 184.5,154.96 185.94,154.71C187.38,154.46 188.83,154.2 190.27,153.95C191.71,153.7 193.15,153.45 194.59,153.2C196.03,152.95 197.48,152.71 198.92,152.47C200.36,152.23 201.8,151.98 203.24,151.74C204.68,151.5 206.12,151.26 207.56,151.02C209,150.78 210.45,150.54 211.89,150.3C213.33,150.06 214.77,149.83 216.21,149.6C217.65,149.37 219.1,149.13 220.54,148.9C221.98,148.67 223.42,148.44 224.86,148.21C226.3,147.98 227.75,147.77 229.19,147.54C230.63,147.32 232.07,147.09 233.51,146.86C234.95,146.64 236.39,146.41 237.83,146.19C239.27,145.97 240.72,145.74 242.16,145.52C243.6,145.3 245.04,145.08 246.48,144.86C247.92,144.64 249.37,144.43 250.81,144.21C252.25,143.99 253.69,143.77 255.13,143.56C256.57,143.35 258.02,143.14 259.46,142.93C260.9,142.72 262.34,142.52 263.78,142.31C265.22,142.1 266.66,141.89 268.1,141.68C269.54,141.47 270.99,141.27 272.43,141.06C273.87,140.85 275.31,140.64 276.75,140.44C278.19,140.23 279.64,140.03 281.08,139.83C282.52,139.63 283.96,139.42 285.4,139.22C286.84,139.01 288.29,138.81 289.73,138.6C291.17,138.4 292.61,138.19 294.05,137.99C295.49,137.79 296.93,137.58 298.37,137.38C299.81,137.18 301.26,136.98 302.7,136.77C304.14,136.57 305.58,136.35 307.02,136.15C308.46,135.95 309.91,135.75 311.35,135.55C312.79,135.35 314.23,135.14 315.67,134.94C317.11,134.74 318.56,134.53 320,134.33C321.44,134.13 322.88,133.92 324.32,133.72C325.76,133.52 327.2,133.31 328.64,133.11C330.08,132.91 331.53,132.7 332.97,132.5C334.41,132.3 335.85,132.09 337.29,131.89C338.73,131.69 340.18,131.49 341.62,131.29C343.06,131.09 344.5,130.89 345.94,130.69C347.38,130.49 348.83,130.29 350.27,130.09C351.71,129.89 353.15,129.7 354.59,129.5C356.03,129.31 357.47,129.11 358.91,128.92C360.35,128.73 361.8,128.53 363.24,128.34C364.68,128.15 366.12,127.95 367.56,127.76C369,127.57 370.45,127.38 371.89,127.19C373.33,127 374.77,126.79 376.21,126.6C377.65,126.4 379.1,126.21 380.54,126.02C381.98,125.83 383.42,125.63 384.86,125.44C386.3,125.25 387.74,125.05 389.18,124.86C390.62,124.67 392.07,124.47 393.51,124.28C394.95,124.09 396.39,123.9 397.83,123.71C399.27,123.52 400.72,123.33 402.16,123.14C403.6,122.95 405.04,122.75 406.48,122.56C407.92,122.37 409.36,122.17 410.8,121.98C412.24,121.79 413.69,121.59 415.13,121.4C416.57,121.21 418.01,121.02 419.45,120.83C420.89,120.64 422.34,120.44 423.78,120.25Q425.22,120.06 428.1,119.67" style="vector-effect: none; fill: none; stroke: rgb(255, 151, 255); stroke-opacity: 1; stroke-width: 0px; opacity: 1;"/></g><g class="points"/><g class="text"/></g><g class="trace scatter trace9a1782" style="stroke-miterlimit: 2; opacity: 1;"><g class="fills"/><g class="errorbars"/><g class="lines"/><g class="points"/><g class="text"/></g><g class="trace scatter trace3111cf" style="stroke-miterlimit: 2; opacity: 1;"><g class="fills"/><g class="errorbars"/><g class="lines"/><g class="points"/><g class="text"/></g><g class="trace scatter tracef1ba97" style="stroke-miterlimit: 2; opacity: 1;"><g class="fills"/><g class="errorbars"/><g class="lines"/><g class="points"/><g class="text"/></g><g class="trace scatter trace674554" style="stroke-miterlimit: 2; opacity: 1;"><g class="fills"/><g class="errorbars"/><g class="lines"/><g class="points"/><g class="text"/></g><g class="trace scatter trace0c6d96" style="stroke-miterlimit: 2; opacity: 1;"><g class="fills"/><g class="errorbars"/><g class="lines"/><g class="points"/><g class="text"/></g><g class="trace scatter trace0e8861" style="stroke-miterlimit: 2; opacity: 1;"><g class="fills"/><g class="errorbars"/><g class="lines"/><g class="points"/><g class="text"/></g></g></g></g><path class="xlines-above crisp" d="M64,239.5H500" style="fill: none; stroke-width: 1px; stroke: rgb(0, 0, 0); stroke-opacity: 0.3;"/><path class="ylines-above crisp" d="M64.5,5V239" style="fill: none; stroke-width: 1px; stroke: rgb(0, 0, 0); stroke-opacity: 0.3;"/><g class="overlines-above"/><g class="xaxislayer-above"><g class="xtick"><text text-anchor="middle" x="0" y="264" transform="translate(65,0)" style="font-family: 'Open Sans', verdana, arial, sans-serif; font-size: 20px; fill: rgb(42, 63, 95); fill-opacity: 1; white-space: pre; opacity: 1;">0</text></g><g class="xtick"><text text-anchor="middle" x="0" y="264" style="font-family: 'Open Sans', verdana, arial, sans-serif; font-size: 20px; fill: rgb(42, 63, 95); fill-opacity: 1; white-space: pre; opacity: 1;" transform="translate(149.29000000000002,0)">1</text></g><g class="xtick"><text text-anchor="middle" x="0" y="264" style="font-family: 'Open Sans', verdana, arial, sans-serif; font-size: 20px; fill: rgb(42, 63, 95); fill-opacity: 1; white-space: pre; opacity: 1;" transform="translate(233.58,0)">2</text></g><g class="xtick"><text text-anchor="middle" x="0" y="264" style="font-family: 'Open Sans', verdana, arial, sans-serif; font-size: 20px; fill: rgb(42, 63, 95); fill-opacity: 1; white-space: pre; opacity: 1;" transform="translate(317.86,0)">3</text></g><g class="xtick"><text text-anchor="middle" x="0" y="264" style="font-family: 'Open Sans', verdana, arial, sans-serif; font-size: 20px; fill: rgb(42, 63, 95); fill-opacity: 1; white-space: pre; opacity: 1;" transform="translate(402.15,0)">4</text></g><g class="xtick"><text text-anchor="middle" x="0" y="264" style="font-family: 'Open Sans', verdana, arial, sans-serif; font-size: 20px; fill: rgb(42, 63, 95); fill-opacity: 1; white-space: pre; opacity: 1;" transform="translate(486.44,0)">5</text></g></g><g class="yaxislayer-above"><g class="ytick"><text text-anchor="end" x="60" y="7" transform="translate(0,232.92)" style="font-family: 'Open Sans', verdana, arial, sans-serif; font-size: 20px; fill: rgb(42, 63, 95); fill-opacity: 1; white-space: pre; opacity: 1;">0</text></g><g class="ytick"><text text-anchor="end" x="60" y="7" style="font-family: 'Open Sans', verdana, arial, sans-serif; font-size: 20px; fill: rgb(42, 63, 95); fill-opacity: 1; white-space: pre; opacity: 1;" transform="translate(0,177.46)">0.1</text></g><g class="ytick"><text text-anchor="end" x="60" y="7" style="font-family: 'Open Sans', verdana, arial, sans-serif; font-size: 20px; fill: rgb(42, 63, 95); fill-opacity: 1; white-space: pre; opacity: 1;" transform="translate(0,121.99)">0.2</text></g><g class="ytick"><text text-anchor="end" x="60" y="7" style="font-family: 'Open Sans', verdana, arial, sans-serif; font-size: 20px; fill: rgb(42, 63, 95); fill-opacity: 1; white-space: pre; opacity: 1;" transform="translate(0,66.53)">0.3</text></g><g class="ytick"><text text-anchor="end" x="60" y="7" style="font-family: 'Open Sans', verdana, arial, sans-serif; font-size: 20px; fill: rgb(42, 63, 95); fill-opacity: 1; white-space: pre; opacity: 1;" transform="translate(0,11.059999999999999)">0.4</text></g></g><g class="overaxes-above"/></g></g><g class="polarlayer"/><g class="smithlayer"/><g class="ternarylayer"/><g class="geolayer"/><g class="funnelarealayer"/><g class="pielayer"/><g class="iciclelayer"/><g class="treemaplayer"/><g class="sunburstlayer"/><g class="glimages"/><defs id="topdefs-3b50c3"><g class="clips"/><clipPath id="legend3b50c3"><rect width="119" height="216" x="0" y="0"/></clipPath></defs><g class="layer-above"><g class="imagelayer"/><g class="shapelayer"/></g><g class="infolayer"><g class="legend" pointer-events="all" transform="translate(381,5)"><rect class="bg" shape-rendering="crispEdges" style="stroke: rgb(68, 68, 68); stroke-opacity: 1; fill: rgb(255, 255, 255); fill-opacity: 0.7; stroke-width: 0px;" width="119" height="216" x="0" y="0"/><g class="scrollbox" transform="" clip-path="url(#legend3b50c3)"><g class="groups" transform=""><g class="traces" transform="translate(0,22.1)" style="opacity: 1;"><text class="legendtext" text-anchor="start" x="40" y="9.360000000000001" style="font-family: 'Open Sans', verdana, arial, sans-serif; font-size: 24px; fill: rgb(42, 63, 95); fill-opacity: 1; white-space: pre;">Model</text><g class="layers" style="opacity: 1;"><g class="legendfill"/><g class="legendlines"><path class="js-line" d="M5,0h30" style="fill: none; stroke: rgb(255, 255, 255); stroke-opacity: 0; stroke-width: 2px;"/></g><g class="legendsymbols"><g class="legendpoints"/></g></g><rect class="legendtoggle" x="0" y="-17.1" width="113.359375" height="34.2" style="fill: rgb(0, 0, 0); fill-opacity: 0;"/></g><g class="traces" transform="translate(0,56.300000000000004)" style="opacity: 1;"><text class="legendtext" text-anchor="start" x="40" y="9.360000000000001" style="font-family: 'Open Sans', verdana, arial, sans-serif; font-size: 24px; fill: rgb(42, 63, 95); fill-opacity: 1; white-space: pre;">DAE</text><g class="layers" style="opacity: 1;"><g class="legendfill"/><g class="legendlines"><path class="js-line" d="M5,0h30" style="fill: none; stroke: rgb(0, 0, 0); stroke-opacity: 1; stroke-dasharray: 9px, 9px; stroke-width: 2px;"/></g><g class="legendsymbols"><g class="legendpoints"/></g></g><rect class="legendtoggle" x="0" y="-17.1" width="113.359375" height="34.2" style="fill: rgb(0, 0, 0); fill-opacity: 0;"/></g><g class="traces" transform="translate(0,90.5)" style="opacity: 1;"><text class="legendtext" text-anchor="start" x="40" y="9.360000000000001" style="font-family: 'Open Sans', verdana, arial, sans-serif; font-size: 24px; fill: rgb(42, 63, 95); fill-opacity: 1; white-space: pre;">E-DAE</text><g class="layers" style="opacity: 1;"><g class="legendfill"/><g class="legendlines"><path class="js-line" d="M5,0h30" style="fill: none; stroke: rgb(0, 0, 0); stroke-opacity: 1; stroke-width: 2px;"/></g><g class="legendsymbols"><g class="legendpoints"/></g></g><rect class="legendtoggle" x="0" y="-17.1" width="113.359375" height="34.2" style="fill: rgb(0, 0, 0); fill-opacity: 0;"/></g><g class="traces" transform="translate(0,124.70000000000002)" style="opacity: 1;"><text class="legendtext" text-anchor="start" x="40" y="9.360000000000001" style="font-family: 'Open Sans', verdana, arial, sans-serif; font-size: 24px; fill: rgb(42, 63, 95); fill-opacity: 1; white-space: pre;">Group</text><g class="layers" style="opacity: 1;"><g class="legendfill"/><g class="legendlines"><path class="js-line" d="M5,0h30" style="fill: none; stroke: rgb(255, 255, 255); stroke-opacity: 0; stroke-width: 2px;"/></g><g class="legendsymbols"><g class="legendpoints"/></g></g><rect class="legendtoggle" x="0" y="-17.1" width="113.359375" height="34.2" style="fill: rgb(0, 0, 0); fill-opacity: 0;"/></g><g class="traces" transform="translate(0,158.9)" style="opacity: 1;"><text class="legendtext" text-anchor="start" x="40" y="9.360000000000001" style="font-family: 'Open Sans', verdana, arial, sans-serif; font-size: 24px; fill: rgb(42, 63, 95); fill-opacity: 1; white-space: pre;">C5</text><g class="layers" style="opacity: 1;"><g class="legendfill"/><g class="legendlines"><path class="js-line" d="M5,0h30" style="fill: none; stroke: rgb(102, 102, 102); stroke-opacity: 1; stroke-width: 2px;"/></g><g class="legendsymbols"><g class="legendpoints"/></g></g><rect class="legendtoggle" x="0" y="-17.1" width="113.359375" height="34.2" style="fill: rgb(0, 0, 0); fill-opacity: 0;"/></g><g class="traces" transform="translate(0,193.1)" style="opacity: 1;"><text class="legendtext" text-anchor="start" x="40" y="9.360000000000001" style="font-family: 'Open Sans', verdana, arial, sans-serif; font-size: 24px; fill: rgb(42, 63, 95); fill-opacity: 1; white-space: pre;">C10</text><g class="layers" style="opacity: 1;"><g class="legendfill"/><g class="legendlines"><path class="js-line" d="M5,0h30" style="fill: none; stroke: rgb(95, 70, 144); stroke-opacity: 1; stroke-width: 2px;"/></g><g class="legendsymbols"><g class="legendpoints"/></g></g><rect class="legendtoggle" x="0" y="-17.1" width="113.359375" height="34.2" style="fill: rgb(0, 0, 0); fill-opacity: 0;"/></g></g></g><rect class="scrollbar" rx="20" ry="3" width="0" height="0" style="fill: rgb(128, 139, 164); fill-opacity: 1;" x="0" y="0"/></g><g class="g-gtitle"/><g class="g-xtitle" transform="translate(0,-4.300000000000011)"><text class="xtitle" x="282.5" y="299.3" text-anchor="middle" style="opacity: 1; font-family: 'Open Sans', verdana, arial, sans-serif; font-size: 24px; fill: rgb(42, 63, 95); fill-opacity: 1; white-space: pre;">Prediction horizon [s]</text></g><g class="g-ytitle" transform="translate(12.712890625,0)"><text class="ytitle" transform="rotate(-90,9.287500000000001,122)" x="9.287500000000001" y="122" text-anchor="middle" style="opacity: 1; font-family: 'Open Sans', verdana, arial, sans-serif; font-size: 24px; fill: rgb(42, 63, 95); fill-opacity: 1; white-space: pre;">state prediction MSE</text></g></g></svg>