<svg class="main-svg" xmlns="http://www.w3.org/2000/svg" xmlns:xlink="http://www.w3.org/1999/xlink" width="500" height="300" style="" viewBox="0 0 500 300"><rect x="0" y="0" width="500" height="300" style="fill: rgb(255, 255, 255); fill-opacity: 1;"/><defs id="defs-43893d"><g class="clips"><clipPath id="clip43893dxyplot" class="plotclip"><rect width="452" height="239"/></clipPath><clipPath class="axesclip" id="clip43893dx"><rect x="48" y="0" width="452" height="300"/></clipPath><clipPath class="axesclip" id="clip43893dy"><rect x="0" y="0" width="500" height="239"/></clipPath><clipPath class="axesclip" id="clip43893dxy"><rect x="48" y="0" width="452" height="239"/></clipPath></g><g class="gradients"/><g class="patterns"/></defs><g class="bglayer"/><g class="layer-below"><g class="imagelayer"/><g class="shapelayer"/></g><g class="cartesianlayer"><g class="subplot xy"><g class="layer-subplot"><g class="shapelayer"/><g class="imagelayer"/></g><g class="minor-gridlayer"><g class="x"/><g class="y"/></g><g class="gridlayer"><g class="x"><path class="xgrid crisp" transform="translate(69.52,0)" d="M0,0v239" style="stroke: rgb(0, 0, 0); stroke-opacity: 0.1; stroke-width: 1px;"/><path class="xgrid crisp" transform="translate(204.05,0)" d="M0,0v239" style="stroke: rgb(0, 0, 0); stroke-opacity: 0.1; stroke-width: 1px;"/><path class="xgrid crisp" transform="translate(338.57,0)" d="M0,0v239" style="stroke: rgb(0, 0, 0); stroke-opacity: 0.1; stroke-width: 1px;"/><path class="xgrid crisp" transform="translate(473.1,0)" d="M0,0v239" style="stroke: rgb(0, 0, 0); stroke-opacity: 0.1; stroke-width: 1px;"/></g><g class="y"><path class="ygrid crisp" transform="translate(0,226.69)" d="M48,0h452" style="stroke: rgb(0, 0, 0); stroke-opacity: 0.1; stroke-width: 1px;"/><path class="ygrid crisp" transform="translate(0,184.6)" d="M48,0h452" style="stroke: rgb(0, 0, 0); stroke-opacity: 0.1; stroke-width: 1px;"/><path class="ygrid crisp" transform="translate(0,142.51)" d="M48,0h452" style="stroke: rgb(0, 0, 0); stroke-opacity: 0.1; stroke-width: 1px;"/><path class="ygrid crisp" transform="translate(0,100.43)" d="M48,0h452" style="stroke: rgb(0, 0, 0); stroke-opacity: 0.1; stroke-width: 1px;"/><path class="ygrid crisp" transform="translate(0,58.34)" d="M48,0h452" style="stroke: rgb(0, 0, 0); stroke-opacity: 0.1; stroke-width: 1px;"/><path class="ygrid crisp" transform="translate(0,16.25)" d="M48,0h452" style="stroke: rgb(0, 0, 0); stroke-opacity: 0.1; stroke-width: 1px;"/></g></g><g class="zerolinelayer"/><g class="layer-between"><g class="shapelayer"/><g class="imagelayer"/></g><path class="xlines-below"/><path class="ylines-below"/><g class="overlines-below"/><g class="xaxislayer-below"/><g class="yaxislayer-below"/><g class="overaxes-below"/><g class="overplot"><g class="xy" transform="translate(48,0)" clip-path="url(#clip43893dxyplot)"><g class="scatterlayer mlayer"><g class="trace scatter tracea44d96" style="stroke-miterlimit: 2; opacity: 1;"><g class="fills"/><g class="errorbars"/><g class="lines"><path class="js-line" d="M452,16.86Q376.67,18.35 339,18.87C301.33,19.39 263.64,18.48 226,19.98C188.31,21.48 150.67,25.41 113,27.87Q75.34,30.32 0,34.71" style="vector-effect: none; fill: none; stroke: rgb(29, 105, 150); stroke-opacity: 1; stroke-dasharray: 9px, 9px; stroke-width: 2px; opacity: 1;"/></g><g class="points"/><g class="text"/></g><g class="trace scatter trace39be03" style="stroke-miterlimit: 2;"><g class="fills"><g><path class="js-fill" d="M452,11.95Q376.67,13.79 339,14.27C301.34,14.75 263.65,13.54 226,14.84C188.31,16.14 150.68,20.03 113,22.09Q75.34,24.15 0,27.18L0,42.23Q75.33,36.5 113,33.65C150.67,30.8 188.31,26.83 226,25.13C263.64,23.44 301.33,24.03 339,23.47Q376.67,22.91 452,21.77Z" style="fill: rgb(29, 105, 150); fill-opacity: 0.3; stroke-width: 0;"/></g></g><g class="errorbars"/><g class="lines"><path class="js-line" d="M452,21.77Q376.67,22.91 339,23.47C301.33,24.03 263.64,23.44 226,25.13C188.31,26.83 150.67,30.8 113,33.65Q75.33,36.5 0,42.23" style="vector-effect: none; fill: none; stroke: rgb(239, 85, 59); stroke-opacity: 1; stroke-width: 0px; opacity: 1;"/></g><g class="points"/><g class="text"/></g><g class="trace scatter traced7db9e" style="stroke-miterlimit: 2;"><g class="fills"/><g class="errorbars"/><g class="lines"><path class="js-line" d="M452,11.95Q376.67,13.79 339,14.27C301.34,14.75 263.65,13.54 226,14.84C188.31,16.14 150.68,20.03 113,22.09Q75.34,24.15 0,27.18" style="vector-effect: none; fill: none; stroke: rgb(0, 204, 150); stroke-opacity: 1; stroke-width: 0px; opacity: 1;"/></g><g class="points"/><g class="text"/></g><g class="trace scatter trace2eaa8c" style="stroke-miterlimit: 2; opacity: 1;"><g class="fills"/><g class="errorbars"/><g class="lines"><path class="js-line" d="M452,114.47Q376.94,137.31 339,143.91C301.6,150.41 263.7,152.86 226,154.04C188.37,155.22 150.66,150.65 113,151Q75.33,151.35 0,156.14" style="vector-effect: none; fill: none; stroke: rgb(204, 80, 62); stroke-opacity: 1; stroke-dasharray: 3px, 3px; stroke-width: 2px; opacity: 1;"/></g><g class="points"/><g class="text"/></g><g class="trace scatter tracec2e3cb" style="stroke-miterlimit: 2;"><g class="fills"><g><path class="js-fill" d="M452,79.55Q377.68,123.85 339,134.32C302.25,144.27 263.69,141.4 226,143.07C188.36,144.74 150.66,144.88 113,144.35Q75.33,143.82 0,139.9L0,172.38Q75.27,158.87 113,157.65C150.61,156.44 188.36,165.7 226,165.02C263.7,164.33 301.29,156.12 339,153.51Q376.62,150.91 452,149.38Z" style="fill: rgb(204, 80, 62); fill-opacity: 0.3; stroke-width: 0;"/></g></g><g class="errorbars"/><g class="lines"><path class="js-line" d="M452,149.38Q376.62,150.91 339,153.51C301.29,156.12 263.7,164.33 226,165.02C188.36,165.7 150.61,156.44 113,157.65Q75.27,158.87 0,172.38" style="vector-effect: none; fill: none; stroke: rgb(255, 161, 90); stroke-opacity: 1; stroke-width: 0px; opacity: 1;"/></g><g class="points"/><g class="text"/></g><g class="trace scatter trace52fa05" style="stroke-miterlimit: 2;"><g class="fills"/><g class="errorbars"/><g class="lines"><path class="js-line" d="M452,79.55Q377.68,123.85 339,134.32C302.25,144.27 263.69,141.4 226,143.07C188.36,144.74 150.66,144.88 113,144.35Q75.33,143.82 0,139.9" style="vector-effect: none; fill: none; stroke: rgb(25, 211, 243); stroke-opacity: 1; stroke-width: 0px; opacity: 1;"/></g><g class="points"/><g class="text"/></g><g class="trace scatter trace727a44" style="stroke-miterlimit: 2; opacity: 1;"><g class="fills"/><g class="errorbars"/><g class="lines"><path class="js-line" d="M452,73.6Q376.66,105.05 339,120.83C301.33,136.62 264.32,157.15 226,168.3C188.94,179.08 150.8,184.99 113,187.52Q75.46,190.03 0,183.59" style="vector-effect: none; fill: none; stroke: rgb(29, 105, 150); stroke-opacity: 1; stroke-dasharray: 3px, 3px; stroke-width: 2px; opacity: 1;"/></g><g class="points"/><g class="text"/></g><g class="trace scatter trace67ff65" style="stroke-miterlimit: 2;"><g class="fills"><g><path class="js-fill" d="M452,33.08Q375.44,47.63 339,63.93C299.93,81.41 264.76,117.63 226,137.11C189.31,155.55 151.06,176.63 113,179.23Q75.71,181.77 0,153.9L0,213.28Q75.23,198.08 113,195.8C150.56,193.53 188.5,202.46 226,199.5C263.83,196.51 302.39,191.16 339,177.73Q377.86,163.48 452,114.12Z" style="fill: rgb(29, 105, 150); fill-opacity: 0.3; stroke-width: 0;"/></g></g><g class="errorbars"/><g class="lines"><path class="js-line" d="M452,114.12Q377.86,163.48 339,177.73C302.39,191.16 263.83,196.51 226,199.5C188.5,202.46 150.56,193.53 113,195.8Q75.23,198.08 0,213.28" style="vector-effect: none; fill: none; stroke: rgb(182, 232, 128); stroke-opacity: 1; stroke-width: 0px; opacity: 1;"/></g><g class="points"/><g class="text"/></g><g class="trace scatter tracec7beb9" style="stroke-miterlimit: 2;"><g class="fills"/><g class="errorbars"/><g class="lines"><path class="js-line" d="M452,33.08Q375.44,47.63 339,63.93C299.93,81.41 264.76,117.63 226,137.11C189.31,155.55 151.06,176.63 113,179.23Q75.71,181.77 0,153.9" style="vector-effect: none; fill: none; stroke: rgb(255, 151, 255); stroke-opacity: 1; stroke-width: 0px; opacity: 1;"/></g><g class="points"/><g class="text"/></g><g class="trace scatter traced61ecb" style="stroke-miterlimit: 2; opacity: 1;"><g class="fills"/><g class="errorbars"/><g class="lines"><path class="js-line" d="M452,174.28Q376.67,174.71 339,175C301.33,175.29 263.67,175.8 226,176.01C188.33,176.22 150.66,177 113,176.28Q75.33,175.56 0,171.68" style="vector-effect: none; fill: none; stroke: rgb(204, 80, 62); stroke-opacity: 1; stroke-width: 2px; opacity: 1;"/></g><g class="points"/><g class="text"/></g><g class="trace scatter traceef9d3b" style="stroke-miterlimit: 2;"><g class="fills"><g><path class="js-fill" d="M452,158.12Q376.67,158.56 339,159.05C301.33,159.55 263.67,160.77 226,161.09C188.33,161.41 150.64,162.52 113,160.97Q75.3,159.42 0,151.78L0,191.58Q75.33,191.7 113,191.59C150.67,191.48 188.33,191.04 226,190.93C263.67,190.82 301.33,191.03 339,190.95Q376.67,190.87 452,190.44Z" style="fill: rgb(204, 80, 62); fill-opacity: 0.3; stroke-width: 0;"/></g></g><g class="errorbars"/><g class="lines"><path class="js-line" d="M452,190.44Q376.67,190.87 339,190.95C301.33,191.03 263.67,190.82 226,190.93C188.33,191.04 150.67,191.48 113,191.59Q75.33,191.7 0,191.58" style="vector-effect: none; fill: none; stroke: rgb(99, 110, 250); stroke-opacity: 1; stroke-width: 0px; opacity: 1;"/></g><g class="points"/><g class="text"/></g><g class="trace scatter tracedc493c" style="stroke-miterlimit: 2;"><g class="fills"/><g class="errorbars"/><g class="lines"><path class="js-line" d="M452,158.12Q376.67,158.56 339,159.05C301.33,159.55 263.67,160.77 226,161.09C188.33,161.41 150.64,162.52 113,160.97Q75.3,159.42 0,151.78" style="vector-effect: none; fill: none; stroke: rgb(239, 85, 59); stroke-opacity: 1; stroke-width: 0px; opacity: 1;"/></g><g class="points"/><g class="text"/></g><g class="trace scatter tracee4b53e" style="stroke-miterlimit: 2; opacity: 1;"><g class="fills"/><g class="errorbars"/><g class="lines"><path class="js-line" d="M452,221.92Q376.67,221.77 339,222.16C301.33,222.55 263.67,224.2 226,224.26C188.33,224.32 150.58,225.42 113,222.54Q75.24,219.65 0,206.89" style="vector-effect: none; fill: none; stroke: rgb(29, 105, 150); stroke-opacity: 1; stroke-width: 2px; opacity: 1;"/></g><g class="points"/><g class="text"/></g><g class="trace scatter trace1b16d5" style="stroke-miterlimit: 2;"><g class="fills"><g><path class="js-fill" d="M452,218.66Q376.66,217.57 339,218.04C301.33,218.51 263.67,220.95 226,221.47C188.34,221.99 150.27,226.64 113,221.14Q74.92,215.52 0,187.4L0,226.37Q75.33,223.82 113,223.93C150.67,224.04 188.33,226.66 226,227.05C263.66,227.44 301.33,226.58 339,226.27Q376.67,225.96 452,225.17Z" style="fill: rgb(29, 105, 150); fill-opacity: 0.3; stroke-width: 0;"/></g></g><g class="errorbars"/><g class="lines"><path class="js-line" d="M452,225.17Q376.67,225.96 339,226.27C301.33,226.58 263.66,227.44 226,227.05C188.33,226.66 150.67,224.04 113,223.93Q75.33,223.82 0,226.37" style="vector-effect: none; fill: none; stroke: rgb(171, 99, 250); stroke-opacity: 1; stroke-width: 0px; opacity: 1;"/></g><g class="points"/><g class="text"/></g><g class="trace scatter trace644af1" style="stroke-miterlimit: 2;"><g class="fills"/><g class="errorbars"/><g class="lines"><path class="js-line" d="M452,218.66Q376.66,217.57 339,218.04C301.33,218.51 263.67,220.95 226,221.47C188.34,221.99 150.27,226.64 113,221.14Q74.92,215.52 0,187.4" style="vector-effect: none; fill: none; stroke: rgb(255, 161, 90); stroke-opacity: 1; stroke-width: 0px; opacity: 1;"/></g><g class="points"/><g class="text"/></g><g class="trace scatter tracea92081" style="stroke-miterlimit: 2; opacity: 1;"><g class="fills"/><g class="errorbars"/><g class="lines"/><g class="points"/><g class="text"/></g><g class="trace scatter trace44e484" style="stroke-miterlimit: 2; opacity: 1;"><g class="fills"/><g class="errorbars"/><g class="lines"/><g class="points"/><g class="text"/></g><g class="trace scatter tracee39d42" style="stroke-miterlimit: 2; opacity: 1;"><g class="fills"/><g class="errorbars"/><g class="lines"/><g class="points"/><g class="text"/></g><g class="trace scatter traceaa92f1" style="stroke-miterlimit: 2; opacity: 1;"><g class="fills"/><g class="errorbars"/><g class="lines"/><g class="points"/><g class="text"/></g><g class="trace scatter traced61632" style="stroke-miterlimit: 2; opacity: 1;"><g class="fills"/><g class="errorbars"/><g class="lines"/><g class="points"/><g class="text"/></g><g class="trace scatter trace3bb9f6" style="stroke-miterlimit: 2; opacity: 1;"><g class="fills"/><g class="errorbars"/><g class="lines"/><g class="points"/><g class="text"/></g><g class="trace scatter trace764ace" style="stroke-miterlimit: 2; opacity: 1;"><g class="fills"/><g class="errorbars"/><g class="lines"/><g class="points"/><g class="text"/></g></g></g></g><path class="xlines-above crisp" d="M47,239.5H500" style="fill: none; stroke-width: 1px; stroke: rgb(0, 0, 0); stroke-opacity: 0.3;"/><path class="ylines-above crisp" d="M47.5,0V239" style="fill: none; stroke-width: 1px; stroke: rgb(0, 0, 0); stroke-opacity: 0.3;"/><g class="overlines-above"/><g class="xaxislayer-above"><g class="xtick"><text text-anchor="middle" x="0" y="264" transform="translate(69.52,0)" style="font-family: 'Open Sans', verdana, arial, sans-serif; font-size: 20px; fill: rgb(42, 63, 95); fill-opacity: 1; white-space: pre; opacity: 1;">50</text></g><g class="xtick"><text text-anchor="middle" x="0" y="264" style="font-family: 'Open Sans', verdana, arial, sans-serif; font-size: 20px; fill: rgb(42, 63, 95); fill-opacity: 1; white-space: pre; opacity: 1;" transform="translate(204.05,0)">100</text></g><g class="xtick"><text text-anchor="middle" x="0" y="264" style="font-family: 'Open Sans', verdana, arial, sans-serif; font-size: 20px; fill: rgb(42, 63, 95); fill-opacity: 1; white-space: pre; opacity: 1;" transform="translate(338.57,0)">150</text></g><g class="xtick"><text text-anchor="middle" x="0" y="264" style="font-family: 'Open Sans', verdana, arial, sans-serif; font-size: 20px; fill: rgb(42, 63, 95); fill-opacity: 1; white-space: pre; opacity: 1;" transform="translate(473.1,0)">200</text></g></g><g class="yaxislayer-above"><g class="ytick"><text text-anchor="end" x="43" y="7" transform="translate(0,226.69)" style="font-family: 'Open Sans', verdana, arial, sans-serif; font-size: 20px; fill: rgb(42, 63, 95); fill-opacity: 1; white-space: pre; opacity: 1;">1</text></g><g class="ytick"><text text-anchor="end" x="43" y="7" style="font-family: 'Open Sans', verdana, arial, sans-serif; font-size: 20px; fill: rgb(42, 63, 95); fill-opacity: 1; white-space: pre; opacity: 1;" transform="translate(0,184.6)">2</text></g><g class="ytick"><text text-anchor="end" x="43" y="7" style="font-family: 'Open Sans', verdana, arial, sans-serif; font-size: 20px; fill: rgb(42, 63, 95); fill-opacity: 1; white-space: pre; opacity: 1;" transform="translate(0,142.51)">3</text></g><g class="ytick"><text text-anchor="end" x="43" y="7" style="font-family: 'Open Sans', verdana, arial, sans-serif; font-size: 20px; fill: rgb(42, 63, 95); fill-opacity: 1; white-space: pre; opacity: 1;" transform="translate(0,100.43)">4</text></g><g class="ytick"><text text-anchor="end" x="43" y="7" style="font-family: 'Open Sans', verdana, arial, sans-serif; font-size: 20px; fill: rgb(42, 63, 95); fill-opacity: 1; white-space: pre; opacity: 1;" transform="translate(0,58.34)">5</text></g><g class="ytick"><text text-anchor="end" x="43" y="7" style="font-family: 'Open Sans', verdana, arial, sans-serif; font-size: 20px; fill: rgb(42, 63, 95); fill-opacity: 1; white-space: pre; opacity: 1;" transform="translate(0,16.25)">6</text></g></g><g class="overaxes-above"/></g></g><g class="polarlayer"/><g class="smithlayer"/><g class="ternarylayer"/><g class="geolayer"/><g class="funnelarealayer"/><g class="pielayer"/><g class="iciclelayer"/><g class="treemaplayer"/><g class="sunburstlayer"/><g class="glimages"/><defs id="topdefs-43893d"><g class="clips"/></defs><g class="layer-above"><g class="imagelayer"/><g class="shapelayer"/></g><g class="infolayer"><g class="g-gtitle"/><g class="g-xtitle" transform="translate(0,-4.300000000000011)"><text class="xtitle" x="274" y="299.3" text-anchor="middle" style="opacity: 1; font-family: 'Open Sans', verdana, arial, sans-serif; font-size: 24px; fill: rgb(42, 63, 95); fill-opacity: 1; white-space: pre;">obs state dimension</text></g><g class="g-ytitle" transform="translate(13.025390625,0)"><text class="ytitle" transform="rotate(-90,8.975000000000001,119.5)" x="8.975000000000001" y="119.5" text-anchor="middle" style="opacity: 1; font-family: 'Open Sans', verdana, arial, sans-serif; font-size: 24px; fill: rgb(42, 63, 95); fill-opacity: 1; white-space: pre;">state prediction MSE</text></g></g></svg>